<svg xmlns="http://www.w3.org/2000/svg" xmlns:xlink="http://www.w3.org/1999/xlink" viewBox="0 0 300 388"><defs><style>.cls-1{fill:url(#未命名漸層_118);filter:url(#luminosity-invert);}.cls-2{fill:url(#未命名漸層_187);}.cls-3{opacity:0.69;fill:url(#未命名漸層_9);}.cls-4{mask:url(#mask);}.cls-5{opacity:0.33;}.cls-10,.cls-11,.cls-12,.cls-13,.cls-14,.cls-15,.cls-16,.cls-17,.cls-18,.cls-19,.cls-20,.cls-21,.cls-22,.cls-23,.cls-24,.cls-25,.cls-26,.cls-27,.cls-28,.cls-29,.cls-30,.cls-31,.cls-35,.cls-36,.cls-38,.cls-39,.cls-6,.cls-7,.cls-8,.cls-9{fill:none;}.cls-10,.cls-11,.cls-12,.cls-13,.cls-14,.cls-15,.cls-16,.cls-17,.cls-18,.cls-19,.cls-20,.cls-21,.cls-22,.cls-23,.cls-24,.cls-25,.cls-26,.cls-27,.cls-28,.cls-29,.cls-30,.cls-31,.cls-32,.cls-33,.cls-34,.cls-35,.cls-36,.cls-37,.cls-38,.cls-39,.cls-40,.cls-41,.cls-42,.cls-43,.cls-44,.cls-45,.cls-46,.cls-47,.cls-48,.cls-6,.cls-7,.cls-8,.cls-9{stroke-miterlimit:10;}.cls-6{stroke:url(#未命名漸層_210);}.cls-7{stroke:url(#未命名漸層_210-2);}.cls-8{stroke:url(#未命名漸層_210-3);}.cls-9{stroke:url(#未命名漸層_210-4);}.cls-10{stroke:url(#未命名漸層_210-5);}.cls-11{stroke:url(#未命名漸層_210-6);}.cls-12{stroke:url(#未命名漸層_91);}.cls-13{stroke:url(#未命名漸層_91-2);}.cls-14{stroke:url(#未命名漸層_91-3);}.cls-15{stroke:url(#未命名漸層_91-4);}.cls-16{stroke:url(#未命名漸層_91-5);}.cls-17{stroke:url(#未命名漸層_91-6);}.cls-18{stroke:url(#未命名漸層_91-7);}.cls-19{stroke:url(#未命名漸層_91-8);}.cls-20{stroke:url(#未命名漸層_91-9);}.cls-21{stroke:url(#未命名漸層_91-10);}.cls-22{stroke:url(#未命名漸層_91-11);}.cls-23{stroke:url(#未命名漸層_91-12);}.cls-24{stroke:url(#未命名漸層_91-13);}.cls-25{stroke:url(#未命名漸層_91-14);}.cls-26{stroke:url(#未命名漸層_91-15);}.cls-27{stroke:url(#未命名漸層_91-16);}.cls-28{stroke:url(#未命名漸層_91-17);}.cls-29{stroke:url(#未命名漸層_91-18);}.cls-30{stroke:url(#未命名漸層_91-19);}.cls-31{stroke:url(#未命名漸層_91-20);}.cls-32{fill:url(#未命名漸層_91-21);stroke:url(#未命名漸層_91-22);}.cls-33{fill:url(#未命名漸層_91-23);stroke:url(#未命名漸層_91-24);}.cls-34{fill:url(#未命名漸層_91-25);stroke:url(#未命名漸層_91-26);}.cls-35{stroke:url(#未命名漸層_91-27);}.cls-36{stroke:url(#未命名漸層_91-28);}.cls-37{fill:url(#未命名漸層_91-29);stroke:url(#未命名漸層_91-30);}.cls-38{stroke:url(#未命名漸層_210-7);}.cls-39{stroke:url(#未命名漸層_91-31);}.cls-40,.cls-41,.cls-42,.cls-43,.cls-44,.cls-45,.cls-46,.cls-47,.cls-48{stroke:#231815;}.cls-40,.cls-41,.cls-42{stroke-width:0.75px;}.cls-40{fill:url(#未命名漸層_13);}.cls-41{fill:url(#未命名漸層_13-2);}.cls-42{fill:url(#未命名漸層_13-3);}.cls-43,.cls-44,.cls-45,.cls-46,.cls-47,.cls-48{stroke-width:0.5px;}.cls-43{fill:url(#未命名漸層_13-4);}.cls-44{fill:url(#未命名漸層_13-5);}.cls-45{fill:url(#未命名漸層_13-6);}.cls-46{fill:url(#未命名漸層_13-7);}.cls-47{fill:url(#未命名漸層_13-8);}.cls-48{fill:url(#未命名漸層_13-9);}</style><linearGradient id="未命名漸層_118" x1="1153.19" y1="1263" x2="1153.19" y2="747.71" gradientTransform="matrix(-0.95, 0.31, -0.31, -0.95, 1607.47, 920.64)" gradientUnits="userSpaceOnUse"><stop offset="0" stop-color="#231815"/><stop offset="0.12" stop-color="#251a18"/><stop offset="0.19" stop-color="#2d2320"/><stop offset="0.24" stop-color="#3b312e"/><stop offset="0.3" stop-color="#4e4543"/><stop offset="0.34" stop-color="#675f5d"/><stop offset="0.39" stop-color="#857f7d"/><stop offset="0.43" stop-color="#a9a5a4"/><stop offset="0.46" stop-color="#d2d0cf"/><stop offset="0.5" stop-color="#fff"/><stop offset="0.54" stop-color="#d2d0cf"/><stop offset="0.57" stop-color="#a9a5a4"/><stop offset="0.61" stop-color="#857f7d"/><stop offset="0.66" stop-color="#675f5d"/><stop offset="0.7" stop-color="#4e4543"/><stop offset="0.76" stop-color="#3b312e"/><stop offset="0.81" stop-color="#2d2320"/><stop offset="0.88" stop-color="#251a18"/><stop offset="1" stop-color="#231815"/></linearGradient><linearGradient id="未命名漸層_187" x1="150.06" y1="388.06" x2="150.06" gradientUnits="userSpaceOnUse"><stop offset="0" stop-color="#1a2951"/><stop offset="0.31" stop-color="#182f49"/><stop offset="0.79" stop-color="#134134"/><stop offset="1" stop-color="#104a29"/></linearGradient><radialGradient id="未命名漸層_9" cx="150.49" cy="199.36" r="149.82" gradientTransform="translate(-1.2 -15.53) scale(1 1.05)" gradientUnits="userSpaceOnUse"><stop offset="0" stop-color="#828282" stop-opacity="0.7"/><stop offset="0.18" stop-color="#848484" stop-opacity="0.46"/><stop offset="0.37" stop-color="#868686" stop-opacity="0.26"/><stop offset="0.57" stop-color="#888" stop-opacity="0.12"/><stop offset="0.78" stop-color="#898989" stop-opacity="0.03"/><stop offset="1" stop-color="#898989" stop-opacity="0"/></radialGradient><filter id="luminosity-invert" filterUnits="userSpaceOnUse" color-interpolation-filters="sRGB"><feColorMatrix values="-1 0 0 0 1 0 -1 0 0 1 0 0 -1 0 1 0 0 0 1 0"/></filter><mask id="mask" x="-197.07" y="-19.09" width="787.16" height="696.58" maskUnits="userSpaceOnUse"><polygon class="cls-1" points="-197.07 188.65 428.37 -19.09 590.1 469.75 -35.34 677.49 -197.07 188.65"/></mask><radialGradient id="未命名漸層_210" cx="1154.13" cy="934.17" r="73.65" gradientTransform="matrix(-0.95, 0.32, -0.31, -0.95, 1607.24, 920.74)" gradientUnits="userSpaceOnUse"><stop offset="0" stop-color="#99d2c4"/><stop offset="0.13" stop-color="#96d0bc"/><stop offset="0.33" stop-color="#8dcca7"/><stop offset="0.58" stop-color="#7fc684"/><stop offset="0.86" stop-color="#6cbc55"/><stop offset="1" stop-color="#61b73a"/></radialGradient><radialGradient id="未命名漸層_210-2" cx="1074.88" cy="976.29" r="73.49" gradientTransform="matrix(-0.93, 0.31, -0.31, -0.93, 1583.67, 901.02)" xlink:href="#未命名漸層_210"/><radialGradient id="未命名漸層_210-3" cx="1108.1" cy="937.81" r="31.24" xlink:href="#未命名漸層_210"/><radialGradient id="未命名漸層_210-4" cx="1311.78" cy="911.16" r="84.59" xlink:href="#未命名漸層_210"/><radialGradient id="未命名漸層_210-5" cx="1200.76" cy="937.2" r="30.8" xlink:href="#未命名漸層_210"/><radialGradient id="未命名漸層_210-6" cx="1256.49" cy="-458.02" r="63.34" gradientTransform="matrix(-1.43, 0.48, -0.34, -1.01, 1673.34, -653.69)" xlink:href="#未命名漸層_210"/><radialGradient id="未命名漸層_91" cx="-12.2" cy="5582.42" r="12.83" gradientTransform="matrix(0.95, -0.32, 0.31, 0.95, -1752.76, -5086.69)" gradientUnits="userSpaceOnUse"><stop offset="0" stop-color="#99d2c4"/><stop offset="0.18" stop-color="#91d0c5"/><stop offset="0.46" stop-color="#7ccbc9"/><stop offset="0.79" stop-color="#5ac3ce"/><stop offset="1" stop-color="#41bdd2"/></radialGradient><radialGradient id="未命名漸層_91-2" cx="7.23" cy="5654.56" r="47.76" xlink:href="#未命名漸層_91"/><radialGradient id="未命名漸層_91-3" cx="10.08" cy="5586.15" r="44.85" xlink:href="#未命名漸層_91"/><radialGradient id="未命名漸層_91-4" cx="102.97" cy="5582.11" r="29.43" xlink:href="#未命名漸層_91"/><radialGradient id="未命名漸層_91-5" cx="148.69" cy="5674.93" r="73.65" xlink:href="#未命名漸層_91"/><radialGradient id="未命名漸層_91-6" cx="43.41" cy="5709.62" r="67.91" gradientTransform="matrix(-0.93, 0.31, -0.31, -0.93, 1891.4, 5607.5)" xlink:href="#未命名漸層_91"/><radialGradient id="未命名漸層_91-7" cx="102.66" cy="5678.57" r="31.24" xlink:href="#未命名漸層_91"/><radialGradient id="未命名漸層_91-8" cx="134.46" cy="5540.6" r="108.72" xlink:href="#未命名漸層_91"/><radialGradient id="未命名漸層_91-9" cx="306.33" cy="5628.44" r="68.53" xlink:href="#未命名漸層_91"/><radialGradient id="未命名漸層_91-10" cx="105.8" cy="5564.21" r="33.55" xlink:href="#未命名漸層_91"/><radialGradient id="未命名漸層_91-11" cx="195.32" cy="5582.37" r="32.87" xlink:href="#未命名漸層_91"/><radialGradient id="未命名漸層_91-12" cx="195.32" cy="5677.95" r="30.8" xlink:href="#未命名漸層_91"/><radialGradient id="未命名漸層_91-13" cx="62.37" cy="5582.73" r="3.7" xlink:href="#未命名漸層_91"/><radialGradient id="未命名漸層_91-14" cx="229.89" cy="5629.15" r="73.71" gradientTransform="matrix(-0.93, 0.31, -0.31, -0.93, 2195.99, 5372.96)" xlink:href="#未命名漸層_91"/><radialGradient id="未命名漸層_91-15" cx="282.97" cy="5582.72" r="44.83" xlink:href="#未命名漸層_91"/><radialGradient id="未命名漸層_91-16" cx="290.73" cy="5582.37" r="30.16" xlink:href="#未命名漸層_91"/><radialGradient id="未命名漸層_91-17" cx="247.27" cy="5582.37" r="3.7" xlink:href="#未命名漸層_91"/><radialGradient id="未命名漸層_91-18" cx="10.39" cy="5582.46" r="4.63" xlink:href="#未命名漸層_91"/><radialGradient id="未命名漸層_91-19" cx="32.85" cy="5582.37" r="12.83" xlink:href="#未命名漸層_91"/><radialGradient id="未命名漸層_91-20" cx="3857.17" cy="2291.58" r="13.44" gradientTransform="matrix(0.31, 0.95, -0.95, 0.31, 966.88, -4193.83)" xlink:href="#未命名漸層_91"/><radialGradient id="未命名漸層_91-21" cx="286.74" cy="5582.83" r="3.79" gradientTransform="matrix(0.95, -0.32, 0.31, 0.95, -1752.99, -5087.4)" xlink:href="#未命名漸層_91"/><radialGradient id="未命名漸層_91-22" cx="286.74" cy="5582.83" r="4.29" xlink:href="#未命名漸層_91"/><radialGradient id="未命名漸層_91-23" cx="241.35" cy="5675.04" r="3.79" gradientTransform="matrix(0.95, -0.32, 0.31, 0.95, -1752.99, -5087.4)" xlink:href="#未命名漸層_91"/><radialGradient id="未命名漸層_91-24" cx="241.35" cy="5675.04" r="4.29" xlink:href="#未命名漸層_91"/><radialGradient id="未命名漸層_91-25" cx="55.9" cy="5675.04" r="3.79" gradientTransform="matrix(0.95, -0.32, 0.31, 0.95, -1752.99, -5087.4)" xlink:href="#未命名漸層_91"/><radialGradient id="未命名漸層_91-26" cx="55.9" cy="5675.04" r="4.29" xlink:href="#未命名漸層_91"/><radialGradient id="未命名漸層_91-27" cx="-36.02" cy="5675.94" r="4.29" xlink:href="#未命名漸層_91"/><radialGradient id="未命名漸層_91-28" cx="54.25" cy="9794.17" r="32.33" gradientTransform="matrix(-1.59, 0.53, -0.34, -1.02, 3407.78, 10335.88)" xlink:href="#未命名漸層_91"/><radialGradient id="未命名漸層_91-29" cx="1154.77" cy="1121" r="7.15" gradientTransform="matrix(-0.95, 0.32, -0.31, -0.95, 1607.47, 921.44)" xlink:href="#未命名漸層_91"/><radialGradient id="未命名漸層_91-30" cx="-2008.6" cy="4251.5" r="5.55" gradientTransform="matrix(0.45, -0.9, 0.89, 0.45, -2738.94, -3490.38)" xlink:href="#未命名漸層_91"/><radialGradient id="未命名漸層_210-7" cx="1098.17" cy="1048.06" r="114.01" gradientTransform="matrix(-1.04, 0.35, -0.35, -1.07, 1717.37, 1089.55)" xlink:href="#未命名漸層_210"/><radialGradient id="未命名漸層_91-31" cx="1099.7" cy="1129.01" r="114.01" gradientTransform="matrix(-1.04, 0.35, -0.36, -1.09, 1740.33, 1153.59)" xlink:href="#未命名漸層_91"/><radialGradient id="未命名漸層_13" cx="70.34" cy="94.4" r="24.97" gradientTransform="translate(0 -1.03)" gradientUnits="userSpaceOnUse"><stop offset="0" stop-color="#fcdfba"/><stop offset="0.12" stop-color="#fbd7b3"/><stop offset="0.29" stop-color="#f9c29e"/><stop offset="0.51" stop-color="#f49f7c"/><stop offset="0.75" stop-color="#ef6f4e"/><stop offset="1" stop-color="#e83818"/></radialGradient><radialGradient id="未命名漸層_13-2" cx="138.51" cy="88.94" r="28.84" xlink:href="#未命名漸層_13"/><radialGradient id="未命名漸層_13-3" cx="209.45" cy="86.2" r="29.43" xlink:href="#未命名漸層_13"/><radialGradient id="未命名漸層_13-4" cx="174.87" cy="131.54" r="7.44" xlink:href="#未命名漸層_13"/><radialGradient id="未命名漸層_13-5" cx="190.37" cy="135.32" r="6.02" xlink:href="#未命名漸層_13"/><radialGradient id="未命名漸層_13-6" cx="205.14" cy="131.41" r="7.53" xlink:href="#未命名漸層_13"/><radialGradient id="未命名漸層_13-7" cx="221.03" cy="132.12" r="7.19" xlink:href="#未命名漸層_13"/><radialGradient id="未命名漸層_13-8" cx="236.57" cy="135.32" r="6.02" xlink:href="#未命名漸層_13"/><radialGradient id="未命名漸層_13-9" cx="251.93" cy="136" r="5.43" xlink:href="#未命名漸層_13"/></defs><title>工作區域 1 複本</title><g id="圖層_2" data-name="圖層 2"><rect class="cls-2" x="0.05" width="300.03" height="388.06"/><rect class="cls-3" x="-0.53" y="36.54" width="300.03" height="314.98"/><g class="cls-4"><g class="cls-5"><polyline class="cls-6" points="291.32 323.32 319.41 408.23 316.4 412.8 232.53 440.65 148.94 468.42 143.11 465.48 115.41 381.75"/><polyline class="cls-7" points="389.43 338.83 221.95 394.46 216.24 391.51 202.96 351.37 188.83 308.58"/><line class="cls-8" x1="274.75" y1="420.77" x2="246.38" y2="336.95"/><polyline class="cls-9" points="86.46 587.3 123.74 574.92 128.31 565.79 103.79 491.19 108.08 482.64 99.91 478.53 72.6 395.97 57.21 351.54"/><line class="cls-10" x1="186.51" y1="450.07" x2="159.11" y2="367.23"/><polyline class="cls-11" points="41.2 450.5 28.06 410.76 13.49 366.06"/><line class="cls-12" x1="-25.27" y1="231.58" x2="9.16" y2="220.14"/><polyline class="cls-13" points="14.76 223.23 25.77 256.51 22.29 264.79 29.64 268.21 57.21 351.54"/><polyline class="cls-14" points="44.29 166.8 69.97 244.42 66.95 249.96 -8.19 274.91 -18.56 269.94"/><line class="cls-15" x1="88.07" y1="149.67" x2="114.26" y2="228.83"/><polyline class="cls-16" points="100.47 336.63 72.38 251.72 75.39 247.15 159.27 219.29 242.85 191.53 248.68 194.47 276.38 278.2"/><polyline class="cls-17" points="2.36 321.12 169.85 265.49 175.55 268.44 188.83 308.58"/><line class="cls-18" x1="117.04" y1="239.18" x2="145.41" y2="323"/><polyline class="cls-19" points="-29.35 183.81 121.86 133.59 132.91 139.63 138.75 127.98 261.07 87.35 256.75 94.32"/><polyline class="cls-20" points="305.33 72.65 268.06 85.03 263.48 94.16 288 168.76 283.72 177.31 291.88 181.42 319.19 263.98"/><polyline class="cls-21" points="62.86 202.74 140.13 177.07 143.27 170.8 132.91 139.63"/><line class="cls-22" x1="174.28" y1="116.18" x2="203.53" y2="204.59"/><line class="cls-23" x1="205.28" y1="209.87" x2="232.69" y2="292.72"/><line class="cls-24" x1="61.19" y1="197.69" x2="64.47" y2="207.6"/><polyline class="cls-25" points="225.59 148.2 148.66 173.75 145.62 179.99 172.58 259.56 178.49 262.62 345.64 206.94"/><polyline class="cls-26" points="217.38 101.86 245.02 185.4 251.75 188.79 327.37 163.67"/><line class="cls-27" x1="239" y1="143.75" x2="319.96" y2="116.86"/><line class="cls-28" x1="236.59" y1="139.05" x2="239.87" y2="148.96"/><ellipse class="cls-29" cx="13.4" cy="218.78" rx="4.13" ry="4.14"/><line class="cls-30" x1="17.48" y1="217.32" x2="51.91" y2="205.89"/><line class="cls-31" x1="0.09" y1="178.89" x2="12.05" y2="215.03"/><ellipse class="cls-32" cx="275.84" cy="132" rx="3.79" ry="3.79"/><ellipse class="cls-33" cx="261.76" cy="234.01" rx="3.79" ry="3.79"/><ellipse class="cls-34" cx="85.73" cy="292.48" rx="3.79" ry="3.79"/><ellipse class="cls-35" cx="-1.23" cy="322.31" rx="3.79" ry="3.79"/><polyline class="cls-36" points="0.18 325.84 6.84 345.95 13.49 366.06"/><polygon class="cls-37" points="165.42 217.09 160.88 226.14 151.85 221.6 156.38 212.54 165.42 217.09"/><line class="cls-38" x1="371.38" y1="296.73" x2="35.34" y2="408.34"/><line class="cls-39" x1="356.46" y1="251.61" x2="20.41" y2="363.22"/></g></g><path class="cls-40" d="M50.87,116.45c-1.32-.31-2.61-.63-3.89-1A13.11,13.11,0,0,1,43.42,114v-.35l2.33-.88,0-.42a4.12,4.12,0,0,0,1.17-.23,5,5,0,0,0,1.09-.58l.43.19L56,109.92c2.45-.59,5-1.15,7.55-1.7l0-.62-.87-2.13.09-1-.16-.41.29-1.2-.24-.62.89-.46.85-7-.84-.1-.76.25H61.06l-.89.32v.28l-.42,0a18.81,18.81,0,0,0-3.52-1.54c-1.21-.38-2.38-.81-3.51-1.26l0-.35,1.91-.86,0-.63h.14l.63.11a8.53,8.53,0,0,0,3-.67,7.06,7.06,0,0,1,3-.53l.5.26,2.05-.87L64,87.73a15.31,15.31,0,0,1-.3-1.87,2,2,0,0,0-1.06-1.63l-.56-.18a6.09,6.09,0,0,1-.72-1.92c-.13-.65-.23-1.27-.3-1.87h.07l.08-1.19A20.26,20.26,0,0,1,56.44,78a11.51,11.51,0,0,1-4.28-2.69L52,74.2l6.1-.65.78.11.3.61,1.61.13c1.71-.22,3.35-.5,4.92-.83a10.53,10.53,0,0,0,4.29-2l.12-.49,1.44-.42a7.26,7.26,0,0,0,2,.32,16.38,16.38,0,0,1,2.07.18l0,.49h-.14l0,.83,1,.93.44.47c-1.51.49-3,1-4.53,1.54s-3,1-4.53,1.41l0,.63.72.59,0,.63a5.74,5.74,0,0,0-.87,2.8c-.07,1-.13,2.07-.17,3a4.18,4.18,0,0,1,.48,1.27,11.76,11.76,0,0,1,.13,1.28l-.48.24,0,.35L69,88l2.41-.68.11-.49.42,0c0-.14.09-.22.3-.23l.59,0,.56,0,.42-.09,1,0,1.39-.14,1.13.16,1,2.54.43.05v.34H79v.14a36.44,36.44,0,0,1-5.71,1.74,28.69,28.69,0,0,0-5.56,1.81,48,48,0,0,1-1.65,7,16.1,16.1,0,0,0-.44,7.35l3.13-.15q3.32-.57,6.64-1t6.81-.58l2.24.24,0-.48.76,0a41.73,41.73,0,0,1,5.2.76q2.53.54,5.21,1l1,.79,0,1-.09.91h.14v.21h-.14l0,.77.65.45-.76,0-1.75-.06-1.31.21a37.91,37.91,0,0,0-7-1.93c-2.42-.42-4.88-.73-7.4-.94l-2.64.27-.15-.13-6.33.3-1,.19-1.9-.19a2.69,2.69,0,0,1-1.56.81c-.6.1-1.24.24-1.93.41l-.12.5a8.15,8.15,0,0,1-2,.79,6.49,6.49,0,0,0-2,.94l-.5-.19-1.26,1.25c-1.19.38-2.35.8-3.46,1.25S52,115.93,50.87,116.45Z"/><path class="cls-41" d="M109.92,107.66a4,4,0,0,1-1.16-2.36,9.44,9.44,0,0,0-.75-2.58l.43-1.21,1.16-.47a10.44,10.44,0,0,0,1-2.67,12.06,12.06,0,0,0,.24-3.12A14.75,14.75,0,0,0,109,91a9,9,0,0,1-1.29-4.44v.2l2.47,2,1,.93,0,.42.71.24c.69.76,1.33,1.49,1.92,2.18a3.27,3.27,0,0,1,.68,2.66l-1.18,4.39.49,0a9.36,9.36,0,0,1,2.74-1.7,3.26,3.26,0,0,0,2-2.09c-.35-.64-.7-1.31-1-2a4,4,0,0,1-.36-2.26,13.81,13.81,0,0,0,.48-4.49c-.07-1.58-.15-3.16-.22-4.74L116,79.56l.69,0,0-.49-.28-1.39h.21a9.09,9.09,0,0,0,2.23,1.4,10.82,10.82,0,0,0,2.41.76l.88,3.73.69,0,0-.69,1.83-1.07.49,0a8.19,8.19,0,0,0,2.63.47,16,16,0,0,1,2.63.26l.27,1.17L129.75,85l-7.93,3.25-.65,6.95.49,0a12.78,12.78,0,0,0,1.86-1.27,2.59,2.59,0,0,1,2.1-.59l4.29.77,0,.69-1.13,1.24q-4.82,2.61-9.56,5.46T109.92,107.66ZM117.13,75a8.6,8.6,0,0,1-3.23-.44,15.15,15.15,0,0,1-3-1.35l-.53-.75a11.66,11.66,0,0,0,4.35-1,40.23,40.23,0,0,0,3.81-2l.18-.49,2.82-.84,5.48.71.32.9-.43,1.21q-2.53,1.09-4.84,2.26A22.66,22.66,0,0,1,117.13,75ZM167,114.89a62.94,62.94,0,0,1-10.15-2.27,37.33,37.33,0,0,1-9.35-4.4l-3.25-3.69-1,0a53.13,53.13,0,0,1-7.55,3.12q-3.88,1.27-7.87,2.38a1.72,1.72,0,0,0-1.76-.37,2.33,2.33,0,0,1-1.83-.16v-.21a84.87,84.87,0,0,0,8.41-3.27,24.85,24.85,0,0,0,7.56-5.33l.24-.78-3.57-4.57a15.55,15.55,0,0,0-4.23-3.78L132.08,90l-1.21-.43-.27-1.18a5.51,5.51,0,0,1,2.06-.69c.79-.11,1.6-.18,2.43-.22a23,23,0,0,1,3.59,3.46,26,26,0,0,0,3.58,3.53V84L141,82.82l-.28-1.38.88-.54v-.2l2.51-.13a4.67,4.67,0,0,0,2.2-.59.93.93,0,0,1,.62.67,4,4,0,0,1,.15,1,17.25,17.25,0,0,0-.54,2.4,7.09,7.09,0,0,0,.09,2.58l.37,1.87L146.79,90l.33,1.17a29,29,0,0,0-.42,4.31,14.07,14.07,0,0,1-.64,4l1.72.9a14.43,14.43,0,0,0,4,4.28,49.66,49.66,0,0,0,4.89,3.11,25.54,25.54,0,0,0,6.2,2.67,19.13,19.13,0,0,1,6.21,3.16l.25.69ZM133.32,81.1a15.77,15.77,0,0,0,1.37-6.39c0-2.31,0-4.55-.12-6.74l-.24-.69-.48,0,0-.49a2.4,2.4,0,0,0,.61-1.81c0-.72-.07-1.48-.11-2.27l-.45-.67a8.8,8.8,0,0,1,2.9-.63l3.2-.16.63,3-1.06,8.36,2.17.18L147,70l1.12-1.45.48,0V68.2l.49,0a8.34,8.34,0,0,0,3.58.59,9.14,9.14,0,0,1,3.58.53l.26.89-1.58,2a44.52,44.52,0,0,0-6,2.17,43.27,43.27,0,0,1-6,2.18l-1.24-1.13-1-.16-.75-1.15-.71-.24-2.41,4.86-2,1.29-.26.5Z"/><path class="cls-42" d="M196.07,115.79l0-.49a22.88,22.88,0,0,0-1.34-2.52,18.28,18.28,0,0,1-1.27-2.45l1-.33a34,34,0,0,0,.26-6.3q-.16-3.35-.11-6.56l-.44-4.8.14-1.34-.27-1.38-.56,0-4.79,6.18-2.08,1.7-.17.78-.56,0v-.28l-.56,0-.45.86-1.32,1.4,1.27-2.44.49,0Q187,94,188.43,90.31a50.81,50.81,0,0,0,2.28-7.73l-1,0L186,84.7l-1.38-1.26a1.56,1.56,0,0,1-1.33-.11,5.67,5.67,0,0,1-1.09-.89l-.32-.76-.56,0-.31-.82,2.67-.9.25-.57a21.92,21.92,0,0,1,3.63-1.37c1.24-.34,2.48-.72,3.71-1.15l0-.49,2.34-.67-.26-5.37a10.63,10.63,0,0,1-1-5.3,14.14,14.14,0,0,0-.83-5.58h.28l.62,1.29.49,0,.59.81.85.24,1.8-.37a2.14,2.14,0,0,1,.75,1.26,8.76,8.76,0,0,1,.22,1.63l-.33,10.43,1.12.22.08,1.6-1.49,2.24-.56,0,0,.84.42,2.91-.13,3.22c.72.48,1.5,1,2.34,1.46a4.64,4.64,0,0,1,1.88,2l.34,1.38-2.1,1.15v.28l-.84,0-1.29.55-.14,3,.36,1.59a7.49,7.49,0,0,0-.42,3c0,1.07.11,2.14.16,3.21l.39,2.36-.24.85.39,2.35a8.84,8.84,0,0,0-.06,3.64A3.17,3.17,0,0,1,196.07,115.79Zm9.83-18.92-1.48-1.82-2.1-.17V94.6l.48,0,0-.76,1.37-.35.43-1.35a27.39,27.39,0,0,0,8.59-1.77,42.62,42.62,0,0,1,8.37-2.26l-.05-.84-.68-2.62.25-.57h.28l.08-2.66-.49,0-.78,1.09-5.51,1.31-.05,4.83-.82.32-.18.56-.56,0a4.26,4.26,0,0,1-.78-1.71c-.12-.6-.27-1.17-.43-1.72.22-2.16.37-4.26.46-6.32a39.1,39.1,0,0,0-.31-6.55l-.31-.54-1,0-1,.33-.57-.25,0-.49-2.46-.44v-.28l.82-.32,0-.49-1.06-.23,1.59-.35.16-.85L209.81,68l-.64-3.19.11-2.1-.61-2.41,1.7,2.08,2.95.35a6.32,6.32,0,0,1,.77,2.26c.11.79.18,1.63.23,2.51l.83,0,4.47-1.27,0-.55L219,58.16a1.39,1.39,0,0,0,.62-1.5,11.87,11.87,0,0,1-.22-1.73l.56,0a4.49,4.49,0,0,0,1.9,1.13,15.64,15.64,0,0,1,2.17.84l.38,2.08-.51,5.4a1.63,1.63,0,0,0,1.31.5l1.64-.08.75-.32.57.26V65l-.28,0-.66,2.13-3,.7L224,72.94l.39,2.15-.27.22.58,12.06,2.92-.14,2.63-.41h5.93l.09,1.89-.26.5a9.57,9.57,0,0,1-2.76,1.35,12.5,12.5,0,0,1-3.07.54L223,90.94l-1.59.36L221.1,91a29.89,29.89,0,0,0-7.8,2.48Q209.52,95.3,205.9,96.87Zm4.85,12.34-.85-.24-1.08-.71-.55.23a9.91,9.91,0,0,0,2.6-4.77,21.85,21.85,0,0,0,.4-5.5l.55,0v-.28l1.32-.06,3,1.46.4,2.63-3.24,5Zm10.35-29.7-.23-4.81-.56,0a3,3,0,0,1-2.1,1.29,6.64,6.64,0,0,0-2.33.81L215,80.57l1.6-.07Zm-.58-6.4-.08-1.61-.94-2.12-1.61-.2-2.59,1.25-.12,3.42,1.32-.06Zm15.25,34.33a4.89,4.89,0,0,1-2.32-1c-.65-.5-1.34-1-2.06-1.47l0-.56L227.76,102l-2.54-3.65h.27q3.24.67,6.22,1.58a12.05,12.05,0,0,1,5.48,3.79l.7,2.9Z"/><path class="cls-43" d="M174.93,140.12a9.81,9.81,0,0,1-2-.93,5.25,5.25,0,0,1-1.72-1.78,6.83,6.83,0,0,1-1-3.22c-.1-1.23-.15-2.48-.15-3.77a18.43,18.43,0,0,1,.5-4.07,10.5,10.5,0,0,1,1.58-3.55,4.63,4.63,0,0,1,1.17-1.09,1.88,1.88,0,0,1,1.47-.24,3.21,3.21,0,0,0,1.11.35,6,6,0,0,1,1.15.25v.21l.33.13v.15l.21.24.51,1.11.27.09.15,1h.12a18.06,18.06,0,0,0,.62,3.81,14,14,0,0,1,.49,3.81c-.12.76-.23,1.52-.33,2.26a13.57,13.57,0,0,1-.45,2.11l-.21.12c-.08.28-.14.52-.18.71a1.4,1.4,0,0,1-.36.62l-.24.12-.06.3a4.3,4.3,0,0,1-1.4.9A4.73,4.73,0,0,1,174.93,140.12Zm.87-2.77.82-.93h.21v-.18l.72-1.12.12-2.38a17.7,17.7,0,0,0-.68-3.9,15.39,15.39,0,0,0-1.49-3.51l-.57-.3-.69.3v.24l-.3.15a18.09,18.09,0,0,0-1,3.63,23.69,23.69,0,0,0-.31,3.9,7.53,7.53,0,0,0,.3,2.14,4,4,0,0,0,1,1.75,1,1,0,0,0,.75.42h.81Z"/><path class="cls-44" d="M193.91,141.51l-1.51-.84a12.5,12.5,0,0,1-1.23-5.59,37.71,37.71,0,0,0-.48-6.05l-.3-.09-.48.22v.21l-1.81,1.41c-.28,1.53-.5,3.09-.66,4.67s-.28,3.18-.36,4.76l.12.67-.51.3-.39-.18v-.24l-.3-.09-.39-1.33h-.18v-.75l.27-1.42-.09-.33c.18-.93.35-1.86.51-2.8a14.16,14.16,0,0,0,.18-2.93l-.42-2.62.63-.09.9.54v.88h.27l.9-1.21a7.25,7.25,0,0,1,1.45-.72,4.84,4.84,0,0,1,1.65-.27l.51.36a4.61,4.61,0,0,1,.76,1.9,8.91,8.91,0,0,1,0,2.2l-.06,1.62.06,1.42-.06.54.06.55-.06.45a8.93,8.93,0,0,1,.22,1.61,2.79,2.79,0,0,0,.53,1.52l1.65.88v.63Z"/><path class="cls-45" d="M205.73,141.24l-1-1.21-.18-1.65.06-.09V133l.12-.9-.12-.45.12-.64c-.08-1.8-.16-3.57-.25-5.3a29.35,29.35,0,0,0-.65-4.88H204l.18-.6h.48l.15.12.67-.28.27.28a1.36,1.36,0,0,1,.27.84,7.73,7.73,0,0,0,.06,1l-.06,1.75.06.33-.06.46.18,1.23v5.64l.09,4-.09,1.36.24,4.07Z"/><path class="cls-46" d="M221.76,125.87l-1.42-1.27-.27-.75a2.2,2.2,0,0,1-.48-.75,2.42,2.42,0,0,1-.18-.91l.36-.9h.87l1.45.21a2.49,2.49,0,0,1,.46,1.79,18.59,18.59,0,0,0-.1,1.92l-.24.54Zm.33,15.55a4,4,0,0,1-1-1.12,4.49,4.49,0,0,1-.5-1.29l.27-2.41c-.08-1.33-.21-2.66-.4-4a23.54,23.54,0,0,0-.89-3.88l.72-.45v-.21h.12V128l1.45-.12a1.35,1.35,0,0,1,.45,1,6.41,6.41,0,0,0,.09,1.06l-.09,1.53.3,3.56-.21,1.54.21.12v4.55Z"/><path class="cls-47" d="M240.1,141.51l-1.5-.84a12.37,12.37,0,0,1-1.24-5.59,37.71,37.71,0,0,0-.48-6.05l-.3-.09-.48.22v.21l-1.8,1.41c-.29,1.53-.51,3.09-.67,4.67s-.28,3.18-.36,4.76l.12.67-.51.3-.39-.18v-.24l-.3-.09-.39-1.33h-.18v-.75l.27-1.42-.09-.33c.18-.93.35-1.86.51-2.8a14.16,14.16,0,0,0,.18-2.93l-.42-2.62.63-.09.9.54v.88h.27l.91-1.21a6.92,6.92,0,0,1,1.44-.72,4.84,4.84,0,0,1,1.65-.27l.52.36a4.46,4.46,0,0,1,.75,1.9,8.91,8.91,0,0,1,0,2.2l-.06,1.62.06,1.42-.06.54.06.55-.06.45a8.93,8.93,0,0,1,.22,1.61,2.79,2.79,0,0,0,.53,1.52l1.65.88v.63Z"/><path class="cls-48" d="M250.9,141.33l-1.9-.72-.51-.49a6.81,6.81,0,0,1-1.11-3,26.13,26.13,0,0,1-.15-3.37l.51-2.14H248l.42-.82.3-.12.51-.72.6-.45,1.39-.33a5.58,5.58,0,0,1,1.56.39q.72.3,1.47.57l.85.93.69.49.24.72-1.08.84a8.56,8.56,0,0,1-2.44,1.36,7.33,7.33,0,0,1-2.86.36l-.3-.06a2.65,2.65,0,0,0-.21,1.07V137a3.86,3.86,0,0,0,.39,1.22c.2.39.42.78.66,1.16l.77.24a1.66,1.66,0,0,0,.89,0,9.16,9.16,0,0,0,1.32-.38,4.68,4.68,0,0,0,1.26-.7l.12-.3h.22l.33-.49.27-.45.42-.3.63-.33.24,1.08a6.29,6.29,0,0,1-.56,1.22c-.21.35-.45.73-.73,1.13a6.39,6.39,0,0,1-2.08.92A9.74,9.74,0,0,1,250.9,141.33Zm.93-8.5,1.14-.57.06-.57-.36-.55a8.53,8.53,0,0,1-1-.34,2.41,2.41,0,0,0-.94-.2l-.67.72h-.24a2.6,2.6,0,0,1-.33,1,1.4,1.4,0,0,0-.15,1h.93Z"/></g></svg>