<svg xmlns="http://www.w3.org/2000/svg" xmlns:xlink="http://www.w3.org/1999/xlink" viewBox="0 0 249.99 50.18"><defs><style>.cls-1{opacity:0.1;fill:url(#未命名漸層_91);}.cls-2{fill:none;stroke-miterlimit:10;stroke-width:2px;stroke:url(#未命名漸層_91-2);}.cls-3{fill:url(#未命名漸層_91-3);}.cls-4{fill:url(#未命名漸層_91-4);}.cls-5{fill:url(#未命名漸層_91-5);}.cls-6{fill:url(#未命名漸層_91-6);}</style><radialGradient id="未命名漸層_91" cx="743.94" cy="-430.6" r="149.81" gradientTransform="translate(-227.44 229.08) scale(0.47 0.47)" gradientUnits="userSpaceOnUse"><stop offset="0" stop-color="#99d2c4"/><stop offset="0.18" stop-color="#91d0c5"/><stop offset="0.46" stop-color="#7ccbc9"/><stop offset="0.79" stop-color="#5ac3ce"/><stop offset="1" stop-color="#41bdd2"/></radialGradient><radialGradient id="未命名漸層_91-2" cx="743.94" cy="-1083.22" r="152.51" gradientTransform="translate(-227.44 413.81) scale(0.47 0.36)" xlink:href="#未命名漸層_91"/><radialGradient id="未命名漸層_91-3" cx="666.39" cy="-430.21" r="24.54" xlink:href="#未命名漸層_91"/><radialGradient id="未命名漸層_91-4" cx="719.36" cy="-430.35" r="24.37" xlink:href="#未命名漸層_91"/><radialGradient id="未命名漸層_91-5" cx="772.36" cy="-430.32" r="24.05" xlink:href="#未命名漸層_91"/><radialGradient id="未命名漸層_91-6" cx="825.87" cy="-430.11" r="24.42" xlink:href="#未命名漸層_91"/></defs><title>工作區域 29 複本 3</title><g id="圖層_2" data-name="圖層 2"><rect class="cls-1" x="26.31" y="6.76" width="197.36" height="36.66"/><rect class="cls-2" x="26.31" y="6.76" width="197.36" height="36.66"/><path class="cls-3" d="M82.9,25.74a30.72,30.72,0,0,1-2.06,6.48c.51.28,1.08.75,2,1.31,1.79,1.08,4.05,1.25,7,1.25,3.21,0,7.28-.25,10.1-.53a6.77,6.77,0,0,0-.58,1.94c-1.86.12-6.61.27-9.6.27-3.29,0-5.5-.27-7.33-1.38-1-.6-2-1.45-2.51-1.45s-1.41,1.58-2.17,3.16l-1.28-1.68A11.7,11.7,0,0,1,79,32.32a21.6,21.6,0,0,0,1.8-5.23H77.58c.68-1.48,1.46-3.61,2.13-5.6H76.93V19.81h5.15c-.63,1.81-1.41,3.92-2.06,5.65h1.7l.33-.07ZM79.51,18.5c-.3-1.1-.85-2.84-1.28-4.14l1.66-.48c.43,1.31,1,2.94,1.33,4ZM90.06,30.91H83.31V29.33h6.75V27.52H84.51V19.46h5.55V17.55H83.31V16h6.75V13.75h1.81V16H99v1.59H91.87v1.91H97.7v8.06H91.87v1.81h7.49v1.58H91.87v3H90.06ZM86.22,22.8h3.84v-2H86.22Zm3.84,3.34v-2H86.22v2Zm1.81-5.3v2h4v-2Zm4,3.29h-4v2h4Z"/><path class="cls-4" d="M109,29c0-.43-.15-.93-.25-1.43-5,.72-5.77.9-6.23,1.15a18.69,18.69,0,0,0-.6-1.78c.53-.13,1.08-.73,1.83-1.66a27.21,27.21,0,0,0,2.06-2.79,14.26,14.26,0,0,0-3.44.6,17.72,17.72,0,0,0-.6-1.7c.43-.1.85-.61,1.33-1.39a30.89,30.89,0,0,0,3.22-6.28l1.73.73a40.76,40.76,0,0,1-3.79,6.63l2.61-.25a32,32,0,0,0,1.86-3.34l1.66,1a49.3,49.3,0,0,1-5.61,8.11l3.62-.48c-.22-.85-.48-1.7-.75-2.48l1.43-.38a35.9,35.9,0,0,1,1.46,5.33ZM104.48,30a33,33,0,0,1-1.28,6.18,10.89,10.89,0,0,0-1.43-.52A25.89,25.89,0,0,0,103,29.78Zm2.34-.3c.28,1.71.55,3.9.63,5.35l-1.48.28a43.76,43.76,0,0,0-.56-5.38Zm2.24-.6a29.74,29.74,0,0,1,1.25,4l-1.38.45a31.72,31.72,0,0,0-1.18-4.09Zm7.56-1.53A12.1,12.1,0,0,1,111,35.51a6.29,6.29,0,0,0-1.08-1.33,10,10,0,0,0,4.6-5.35h-3.24V27.27h4l.3-.08Zm7.73-.41c-1.13,1-2.41,2.19-3.51,3a10.85,10.85,0,0,0,4.09,3.92,6.92,6.92,0,0,0-1.23,1.48,13.51,13.51,0,0,1-4.75-5.7v4.72c0,1-.2,1.46-.88,1.76a9,9,0,0,1-3.31.33,7.33,7.33,0,0,0-.55-1.74c1.18.05,2.23.05,2.53,0s.43-.1.43-.4V25.18h-5V16.39H116a17.41,17.41,0,0,0,.86-2.66l2.08.43-1,2.23h5.65v8.79H119v.91A15.39,15.39,0,0,0,120.13,29,30.31,30.31,0,0,0,123,26.06Zm-10.42-7.13h7.81V17.87h-7.81Zm0,3.64h7.81V21.47h-7.81Z"/><path class="cls-5" d="M149.78,22.22h-2.41V34.35c0,1.16-.31,1.66-1,2a12,12,0,0,1-4,.35,7.54,7.54,0,0,0-.68-1.78c1.51.05,2.87.05,3.24,0s.61-.15.61-.58V22.22h-6V20.74H127.14V19.13H131V17.85l-1.19.8a16.14,16.14,0,0,0-2.31-3.34l1.18-.75A13.6,13.6,0,0,1,131,17.7V13.75h1.5v5.38h1.94V13.75H136v4.07a26.67,26.67,0,0,0,2.29-3.24l1.5.83A42.09,42.09,0,0,1,137,18.7l-1-.6v1h3.77v1.33h5.83V13.83h1.81v6.63h2.41ZM134.35,33c1.71-.25,3.52-.48,5.28-.73l.05,1.66-12.26,1.73-.28-1.78c1.51-.18,3.39-.41,5.45-.68v-3h-4V28.63h4V26.06H128V24.48h6.48a27.65,27.65,0,0,0,1.68-3.59l1.66.6c-.53,1-1.11,2.09-1.66,3H139v1.58h-4.62v2.57h4.1v1.55h-4.1Zm-3.69-12.14a10.75,10.75,0,0,1,2,2.84l-1.38.78a12.28,12.28,0,0,0-1.91-2.94Zm11.86,9.68a20.46,20.46,0,0,0-2.21-5.76l1.55-.55a19.92,19.92,0,0,1,2.31,5.68Z"/><path class="cls-6" d="M159.52,32.77v3.92h-1.76V32.77h-5.67V31.11h5.67V29.33h-4.64V20.84H164.3v8.49h-4.78v1.78h5.6v1.66Zm-1.45-13.26h-5.15v-5h5.15Zm-1.44-3.7h-2.28V18.2h2.28Zm-1.93,8.57h3.14V22.3H154.7Zm0,3.49h3.14V25.76H154.7Zm9.82-8.36h-5.25v-5h5.25Zm-1.86,2.79h-3.21v2.08h3.21Zm0,3.46h-3.21v2.11h3.21Zm.4-10h-2.38V18.2h2.38Zm11.21,8.07a25.94,25.94,0,0,1-3.62,7c.66,2.28,1.46,3.66,2.39,3.72.53,0,.9-1.36,1.05-3.85a7,7,0,0,0,1.44,1c-.51,3.94-1.46,5.07-2.47,5-1.63-.07-2.86-1.61-3.76-4.22a17.44,17.44,0,0,1-4.83,3.92,6.24,6.24,0,0,0-1.35-1.31,16.69,16.69,0,0,0,5.62-4.57,55.87,55.87,0,0,1-1.23-7.94l-2.69.35-.22-1.7,2.79-.36c-.18-2.18-.31-4.54-.38-7h1.76c0,2.37.17,4.68.35,6.81L175,20l.23,1.69-5.93.75a58,58,0,0,0,.88,6.23,23.38,23.38,0,0,0,2.66-5.6Zm-1.08-4.67A17.8,17.8,0,0,0,170.3,15l1.38-.78a19.34,19.34,0,0,1,3,4.15Z"/></g></svg>