<svg xmlns="http://www.w3.org/2000/svg" xmlns:xlink="http://www.w3.org/1999/xlink" viewBox="0 0 249.99 50.18"><defs><style>.cls-1,.cls-2{stroke-miterlimit:10;}.cls-1{stroke-width:2px;opacity:0.1;fill:url(#未命名漸層_210);stroke:url(#未命名漸層_29);}.cls-2{fill:none;stroke:url(#未命名漸層_210-2);}.cls-3{fill:url(#未命名漸層_210-3);}.cls-4{fill:url(#未命名漸層_210-4);}.cls-5{fill:url(#未命名漸層_210-5);}.cls-6{fill:url(#未命名漸層_210-6);}</style><radialGradient id="未命名漸層_210" cx="815.97" cy="154.04" r="27.06" gradientTransform="translate(-2103.26 -199.2) scale(2.73 1.46)" gradientUnits="userSpaceOnUse"><stop offset="0" stop-color="#99d2c4"/><stop offset="0.13" stop-color="#96d0bc"/><stop offset="0.33" stop-color="#8dcca7"/><stop offset="0.58" stop-color="#7fc684"/><stop offset="0.86" stop-color="#6cbc55"/><stop offset="1" stop-color="#61b73a"/></radialGradient><linearGradient id="未命名漸層_29" x1="161.4" y1="83.72" x2="88.59" y2="-33.54" gradientUnits="userSpaceOnUse"><stop offset="0" stop-color="#fff"/><stop offset="0.23" stop-color="#fefef7"/><stop offset="0.57" stop-color="#fdfbe2"/><stop offset="0.99" stop-color="#faf7c0"/><stop offset="1" stop-color="#faf7bf"/></linearGradient><radialGradient id="未命名漸層_210-2" cx="127.18" cy="-154.3" r="93" gradientTransform="translate(26.28 115.8) scale(0.78 0.59)" xlink:href="#未命名漸層_210"/><radialGradient id="未命名漸層_210-3" cx="79.85" cy="249.01" r="14.19" gradientTransform="translate(26.28 -167.44) scale(0.78 0.78)" xlink:href="#未命名漸層_210"/><radialGradient id="未命名漸層_210-4" cx="112.3" cy="248.39" r="14.74" gradientTransform="translate(26.28 -167.44) scale(0.78 0.78)" xlink:href="#未命名漸層_210"/><radialGradient id="未命名漸層_210-5" cx="144.42" cy="248.42" r="14.99" gradientTransform="translate(26.28 -167.44) scale(0.78 0.78)" xlink:href="#未命名漸層_210"/><radialGradient id="未命名漸層_210-6" cx="176.76" cy="248.38" r="14.9" gradientTransform="translate(26.28 -167.44) scale(0.78 0.78)" xlink:href="#未命名漸層_210"/></defs><title>工作區域 29 複本 4</title><g id="圖層_2" data-name="圖層 2"><rect class="cls-1" x="26.31" y="6.76" width="197.36" height="36.66"/><rect class="cls-2" x="26.31" y="6.76" width="197.36" height="36.66"/><path class="cls-3" d="M99.31,33.25H89.11v3.54H87.2V33.25h-10V31.62h10V29.71H79.71V21H97v8.74H89.11v1.91h10.2Zm-12-13.54H79V14.84h8.24Zm-1.76-3.62h-4.8v2.37h4.8Zm-4,8.52H87.2V22.48H81.52ZM87.2,28.2V26H81.52V28.2Zm7.89-5.72h-6v2.13h6Zm0,3.56h-6V28.2h6Zm2.49-6.33H89.29V14.84h8.29Zm-1.74-3.62H91v2.37h4.85Z"/><path class="cls-4" d="M114.36,14c0,.9,0,2.16-.18,3.64.38,3,1.88,13.49,10.75,17.44a5.55,5.55,0,0,0-1.35,1.58c-6.28-2.94-9-9.15-10.18-13.82-1.15,5-3.82,10.65-10,13.92a6,6,0,0,0-1.5-1.46C112.37,30,112.22,17.78,112.3,14Z"/><path class="cls-5" d="M132.47,25.84a32.93,32.93,0,0,1-1.86,6.66c.48.25,1,.73,2,1.28,1.81,1.06,4.15,1.23,7.16,1.23,3.34,0,7.44-.22,10.3-.5a6.8,6.8,0,0,0-.5,1.83c-1.91.13-6.81.3-9.87.3-3.32,0-5.55-.25-7.49-1.38-1-.6-2-1.45-2.54-1.45S128.5,35.39,128,37l-1.26-1.61a9.31,9.31,0,0,1,2.41-2.94,26.9,26.9,0,0,0,1.53-5.18h-2.81c.58-1.48,1.31-3.61,1.86-5.6h-2.51V19.94h4.62c-.55,1.81-1.21,3.92-1.81,5.65h1.43l.28-.08Zm-2.84-7.23c-.28-1.08-.83-2.82-1.23-4.12l1.48-.41c.43,1.31,1,2.94,1.26,4Zm7.11,4.47c-.05,3.16-.55,7-3.07,9.85a6.42,6.42,0,0,0-1.18-1.08c2.39-2.74,2.67-6.49,2.67-9.35V18.86h-2.39V17.27h4c-.3-.85-.73-1.93-1.08-2.81l1.63-.33a25.84,25.84,0,0,1,1.31,3.14h2.71v1.39a18,18,0,0,0,1.89-4.88l1.63.4c-.23.81-.48,1.64-.76,2.42h5.63v1.6h-6.33a15.57,15.57,0,0,1-1.58,2.72,9.22,9.22,0,0,0-1.33-1,9.36,9.36,0,0,0,.73-1h-4.45v2.66h4s0,.55,0,.78c-.17,7.13-.35,9.55-.88,10.3a1.74,1.74,0,0,1-1.3.7,19,19,0,0,1-2.06,0,4.27,4.27,0,0,0-.43-1.56,16.76,16.76,0,0,0,1.76.08.55.55,0,0,0,.6-.31c.35-.47.53-2.56.68-8.46Zm9.75,8.39c0,.83-.15,1.31-.81,1.56a7.83,7.83,0,0,1-2.91.3,5.82,5.82,0,0,0-.58-1.56c1.06,0,2,0,2.29,0s.37-.07.37-.33V27.25h-3.44V25.69h3.44V23.56a13.49,13.49,0,0,0,2-1.71h-4.54V20.39h5.87l.31-.1,1.05.78a19,19,0,0,1-3,2.94v1.68h3.34v1.56h-3.34Z"/><path class="cls-6" d="M154.93,19.39V25c0,3.34-.26,8.19-1.81,11.43a4.78,4.78,0,0,0-1.31-1c1.41-3.07,1.53-7.34,1.53-10.45v-7h4.83V13.86h1.75v1.56h5.31v1.3h-5.31v1.33h4.63l.27-.05,1.11.25a26.14,26.14,0,0,1-1,3.57l-1.35-.32c.17-.56.37-1.34.52-2.11h-4v1.53l2.59-.25.15,1.08L160.1,22v.63c0,.6.08.78.55.78h2.41a7.31,7.31,0,0,0,1.49-.13c0,.41.07.78.12,1.16a6.44,6.44,0,0,1-1.53.13h-2.86c-1.46,0-1.74-.61-1.74-2v-.46l-2.94.31-.15-1.14,3.09-.3V19.39ZM174.77,24A28.66,28.66,0,0,1,171,31.7c.46,1.83,1.06,2.91,1.74,3,.45,0,.78-1.36.95-3.77a5.05,5.05,0,0,0,1.33,1c-.47,3.89-1.38,4.95-2.28,4.92-1.33,0-2.31-1.3-3-3.49a15.07,15.07,0,0,1-3.09,2.79,7,7,0,0,0-1.31-1.23v.6c-3.62.36-7.41.73-10.1,1L155,35c.88-.08,1.94-.15,3.09-.26a24,24,0,0,0-.8-2.58l1.33-.25c.32.85.73,1.93.93,2.71l1.66-.15c.37-.83.85-1.91,1.1-2.66l1.56.3c-.35.75-.75,1.53-1.13,2.21l2.56-.23v.73a14.81,14.81,0,0,0,3.84-3.47A62.54,62.54,0,0,1,168,22.7l-2.11.28-.25-1.64,2.23-.3c-.12-2.21-.2-4.57-.27-7.06h1.73c0,2.39.13,4.7.25,6.84l5.28-.68.22,1.66-5.4.68c.2,2.68.48,5,.78,7a22.94,22.94,0,0,0,2.86-6.28Zm-9.19,2.77h-9.85V25.44h9.85Zm-9.2,4.95V27.78h8.34V31.7Zm1.46-1.09h5.35V28.86h-5.35Zm15.55-11.35A50.58,50.58,0,0,0,170.6,15l1.38-.68c1,1.31,2.24,3,2.89,4.1Z"/></g></svg>