<svg xmlns="http://www.w3.org/2000/svg" xmlns:xlink="http://www.w3.org/1999/xlink" viewBox="0 0 250 214.79"><defs><style>.cls-1{fill:url(#未命名漸層_187);}.cls-2,.cls-3,.cls-4,.cls-5,.cls-7{fill:none;stroke-miterlimit:10;}.cls-2{stroke:url(#未命名漸層_29);}.cls-3{stroke:url(#未命名漸層_29-2);}.cls-4{stroke:url(#未命名漸層_29-3);}.cls-5{stroke:url(#未命名漸層_29-4);}.cls-6{fill:url(#未命名漸層_29-5);}.cls-7{stroke:url(#未命名漸層_29-6);}</style><linearGradient id="未命名漸層_187" x1="199.14" y1="229.15" x2="52.06" y2="-7.68" gradientUnits="userSpaceOnUse"><stop offset="0" stop-color="#1a2951"/><stop offset="0.31" stop-color="#182f49"/><stop offset="0.79" stop-color="#134134"/><stop offset="1" stop-color="#104a29"/></linearGradient><linearGradient id="未命名漸層_29" x1="235.98" y1="192.36" x2="94.39" y2="-35.65" gradientUnits="userSpaceOnUse"><stop offset="0" stop-color="#fff"/><stop offset="0.23" stop-color="#fefef7"/><stop offset="0.57" stop-color="#fdfbe2"/><stop offset="0.99" stop-color="#faf7c0"/><stop offset="1" stop-color="#faf7bf"/></linearGradient><linearGradient id="未命名漸層_29-2" x1="281.5" y1="188.66" x2="202.94" y2="62.17" xlink:href="#未命名漸層_29"/><linearGradient id="未命名漸層_29-3" x1="17.98" y1="16.51" x2="10.59" y2="4.6" xlink:href="#未命名漸層_29"/><linearGradient id="未命名漸層_29-4" x1="159.27" y1="256.6" x2="17.59" y2="28.47" xlink:href="#未命名漸層_29"/><linearGradient id="未命名漸層_29-5" x1="160.37" y1="197.88" x2="172.42" y2="197.88" xlink:href="#未命名漸層_29"/><linearGradient id="未命名漸層_29-6" x1="63.46" y1="160.59" x2="-9.74" y2="42.73" xlink:href="#未命名漸層_29"/></defs><title>工作區域 32</title><g id="圖層_2" data-name="圖層 2"><path class="cls-1" d="M17.48,17.87v177l13.67,13.28H233V25.49l-14-14.07H21.3S21.55,14.81,17.48,17.87Z"/><polyline class="cls-2" points="20.79 10.55 219.81 10.55 233.87 24.75 233.87 193.36"/><line class="cls-3" x1="242.22" y1="38.09" x2="242.22" y2="212.74"/><circle class="cls-4" cx="14.28" cy="10.56" r="6.51"/><polyline class="cls-5" points="16.94 29.18 16.94 195.61 30.7 209.01 233.87 209.01 223.04 198.46 171.74 198.46"/><rect class="cls-6" x="160.37" y="191.85" width="12.05" height="12.05"/><line class="cls-7" x1="26.86" y1="20.31" x2="26.86" y2="183.01"/></g></svg>