<svg id="圖層_1" data-name="圖層 1" xmlns="http://www.w3.org/2000/svg" xmlns:xlink="http://www.w3.org/1999/xlink" viewBox="0 0 300 388"><defs><style>.cls-1{fill:url(#未命名漸層_118);filter:url(#luminosity-invert);}.cls-2{fill:url(#未命名漸層_187);}.cls-3{opacity:0.69;fill:url(#未命名漸層_9);}.cls-4{mask:url(#mask);}.cls-10,.cls-11,.cls-12,.cls-13,.cls-14,.cls-15,.cls-16,.cls-17,.cls-18,.cls-19,.cls-20,.cls-21,.cls-22,.cls-23,.cls-24,.cls-25,.cls-26,.cls-27,.cls-28,.cls-29,.cls-32,.cls-36,.cls-37,.cls-38,.cls-39,.cls-41,.cls-42,.cls-43,.cls-44,.cls-45,.cls-46,.cls-47,.cls-48,.cls-49,.cls-5,.cls-50,.cls-51,.cls-52,.cls-53,.cls-54,.cls-55,.cls-56,.cls-57,.cls-58,.cls-59,.cls-6,.cls-60,.cls-61,.cls-62,.cls-63,.cls-64,.cls-65,.cls-68,.cls-7,.cls-72,.cls-73,.cls-74,.cls-75,.cls-77,.cls-78,.cls-8,.cls-9{fill:none;}.cls-10,.cls-11,.cls-12,.cls-13,.cls-14,.cls-15,.cls-16,.cls-17,.cls-18,.cls-19,.cls-20,.cls-21,.cls-22,.cls-23,.cls-24,.cls-25,.cls-26,.cls-27,.cls-28,.cls-29,.cls-30,.cls-31,.cls-32,.cls-33,.cls-34,.cls-35,.cls-36,.cls-37,.cls-38,.cls-39,.cls-40,.cls-41,.cls-42,.cls-43,.cls-44,.cls-45,.cls-46,.cls-47,.cls-48,.cls-49,.cls-5,.cls-50,.cls-51,.cls-52,.cls-53,.cls-54,.cls-55,.cls-56,.cls-57,.cls-58,.cls-59,.cls-6,.cls-60,.cls-61,.cls-62,.cls-63,.cls-64,.cls-65,.cls-66,.cls-67,.cls-68,.cls-69,.cls-7,.cls-70,.cls-71,.cls-72,.cls-73,.cls-74,.cls-75,.cls-76,.cls-77,.cls-78,.cls-8,.cls-9{stroke-miterlimit:10;}.cls-5{stroke:url(#未命名漸層_210);}.cls-6{stroke:url(#未命名漸層_210-2);}.cls-7{stroke:url(#未命名漸層_210-3);}.cls-8{stroke:url(#未命名漸層_210-4);}.cls-9{stroke:url(#未命名漸層_210-5);}.cls-10{stroke:url(#未命名漸層_210-6);}.cls-11{stroke:url(#未命名漸層_210-7);}.cls-12{stroke:url(#未命名漸層_210-8);}.cls-13{stroke:url(#未命名漸層_210-9);}.cls-14{stroke:url(#未命名漸層_210-10);}.cls-15{stroke:url(#未命名漸層_210-11);}.cls-16{stroke:url(#未命名漸層_210-12);}.cls-17{stroke:url(#未命名漸層_210-13);}.cls-18{stroke:url(#未命名漸層_210-14);}.cls-19{stroke:url(#未命名漸層_210-15);}.cls-20{stroke:url(#未命名漸層_210-16);}.cls-21{stroke:url(#未命名漸層_210-17);}.cls-22{stroke:url(#未命名漸層_210-18);}.cls-23{stroke:url(#未命名漸層_210-19);}.cls-24{stroke:url(#未命名漸層_210-20);}.cls-25{stroke:url(#未命名漸層_210-21);}.cls-26{stroke:url(#未命名漸層_210-22);}.cls-27{stroke:url(#未命名漸層_210-23);}.cls-28{stroke:url(#未命名漸層_210-24);}.cls-29{stroke:url(#未命名漸層_210-25);}.cls-30{fill:url(#未命名漸層_91);stroke:url(#未命名漸層_210-26);}.cls-31{fill:url(#未命名漸層_91-2);stroke:url(#未命名漸層_210-27);}.cls-32{stroke:url(#未命名漸層_210-28);}.cls-33{fill:url(#未命名漸層_91-3);stroke:url(#未命名漸層_210-29);}.cls-34{fill:url(#未命名漸層_91-4);stroke:url(#未命名漸層_210-30);}.cls-35{fill:url(#未命名漸層_91-5);stroke:url(#未命名漸層_210-31);}.cls-36{stroke:url(#未命名漸層_210-32);}.cls-37{stroke:url(#未命名漸層_210-33);}.cls-38{stroke:url(#未命名漸層_210-34);}.cls-39{stroke:url(#未命名漸層_210-35);}.cls-40{fill:#c1c2c2;stroke:url(#未命名漸層_210-36);}.cls-41{stroke:url(#未命名漸層_91-6);}.cls-42{stroke:url(#未命名漸層_91-7);}.cls-43{stroke:url(#未命名漸層_91-8);}.cls-44{stroke:url(#未命名漸層_91-9);}.cls-45{stroke:url(#未命名漸層_91-10);}.cls-46{stroke:url(#未命名漸層_91-11);}.cls-47{stroke:url(#未命名漸層_91-12);}.cls-48{stroke:url(#未命名漸層_91-13);}.cls-49{stroke:url(#未命名漸層_91-14);}.cls-50{stroke:url(#未命名漸層_91-15);}.cls-51{stroke:url(#未命名漸層_91-16);}.cls-52{stroke:url(#未命名漸層_91-17);}.cls-53{stroke:url(#未命名漸層_91-18);}.cls-54{stroke:url(#未命名漸層_91-19);}.cls-55{stroke:url(#未命名漸層_91-20);}.cls-56{stroke:url(#未命名漸層_91-21);}.cls-57{stroke:url(#未命名漸層_91-22);}.cls-58{stroke:url(#未命名漸層_91-23);}.cls-59{stroke:url(#未命名漸層_91-24);}.cls-60{stroke:url(#未命名漸層_91-25);}.cls-61{stroke:url(#未命名漸層_91-26);}.cls-62{stroke:url(#未命名漸層_91-27);}.cls-63{stroke:url(#未命名漸層_91-28);}.cls-64{stroke:url(#未命名漸層_91-29);}.cls-65{stroke:url(#未命名漸層_91-30);}.cls-66{fill:url(#未命名漸層_91-31);stroke:url(#未命名漸層_91-32);}.cls-67{fill:url(#未命名漸層_91-33);stroke:url(#未命名漸層_91-34);}.cls-68{stroke:url(#未命名漸層_91-35);}.cls-69{fill:url(#未命名漸層_91-36);stroke:url(#未命名漸層_91-37);}.cls-70{fill:url(#未命名漸層_91-38);stroke:url(#未命名漸層_91-39);}.cls-71{fill:url(#未命名漸層_91-40);stroke:url(#未命名漸層_91-41);}.cls-72{stroke:url(#未命名漸層_91-42);}.cls-73{stroke:url(#未命名漸層_91-43);}.cls-74{stroke:url(#未命名漸層_91-44);}.cls-75{stroke:url(#未命名漸層_91-45);}.cls-76{fill:url(#未命名漸層_91-46);stroke:url(#未命名漸層_91-47);}.cls-77{stroke:url(#未命名漸層_210-37);}.cls-78{stroke:url(#未命名漸層_91-48);}</style><linearGradient id="未命名漸層_118" x1="149.29" y1="352.49" x2="149.29" y2="36.17" gradientUnits="userSpaceOnUse"><stop offset="0" stop-color="#231815"/><stop offset="0.12" stop-color="#251a18"/><stop offset="0.19" stop-color="#2d2320"/><stop offset="0.24" stop-color="#3b312e"/><stop offset="0.3" stop-color="#4e4543"/><stop offset="0.34" stop-color="#675f5d"/><stop offset="0.39" stop-color="#857f7d"/><stop offset="0.43" stop-color="#a9a5a4"/><stop offset="0.46" stop-color="#d2d0cf"/><stop offset="0.5" stop-color="#fff"/><stop offset="0.54" stop-color="#d2d0cf"/><stop offset="0.57" stop-color="#a9a5a4"/><stop offset="0.61" stop-color="#857f7d"/><stop offset="0.66" stop-color="#675f5d"/><stop offset="0.7" stop-color="#4e4543"/><stop offset="0.76" stop-color="#3b312e"/><stop offset="0.81" stop-color="#2d2320"/><stop offset="0.88" stop-color="#251a18"/><stop offset="1" stop-color="#231815"/></linearGradient><linearGradient id="未命名漸層_187" x1="149.99" y1="388" x2="149.99" gradientUnits="userSpaceOnUse"><stop offset="0" stop-color="#1a2951"/><stop offset="0.31" stop-color="#182f49"/><stop offset="0.79" stop-color="#134134"/><stop offset="1" stop-color="#104a29"/></linearGradient><radialGradient id="未命名漸層_9" cx="42.53" cy="575.59" r="400" gradientTransform="translate(133.46 -32.59) scale(0.38 0.39)" gradientUnits="userSpaceOnUse"><stop offset="0" stop-color="#828282" stop-opacity="0.7"/><stop offset="0.18" stop-color="#848484" stop-opacity="0.46"/><stop offset="0.37" stop-color="#868686" stop-opacity="0.26"/><stop offset="0.57" stop-color="#888" stop-opacity="0.12"/><stop offset="0.78" stop-color="#898989" stop-opacity="0.03"/><stop offset="1" stop-color="#898989" stop-opacity="0"/></radialGradient><filter id="luminosity-invert" filterUnits="userSpaceOnUse" color-interpolation-filters="sRGB"><feColorMatrix values="-1 0 0 0 1 0 -1 0 0 1 0 0 -1 0 1 0 0 0 1 0"/></filter><mask id="mask" x="-53.1" y="36.17" width="404.77" height="316.32" maskUnits="userSpaceOnUse"><rect class="cls-1" x="-53.1" y="36.17" width="404.77" height="316.32"/></mask><radialGradient id="未命名漸層_210" cx="-222.05" cy="322.37" r="21.04" gradientTransform="translate(134.12 -26.9) scale(0.37 0.37)" gradientUnits="userSpaceOnUse"><stop offset="0" stop-color="#99d2c4"/><stop offset="0.13" stop-color="#96d0bc"/><stop offset="0.33" stop-color="#8dcca7"/><stop offset="0.58" stop-color="#7fc684"/><stop offset="0.86" stop-color="#6cbc55"/><stop offset="1" stop-color="#61b73a"/></radialGradient><radialGradient id="未命名漸層_210-2" cx="-189.58" cy="479.17" r="105.53" xlink:href="#未命名漸層_210"/><radialGradient id="未命名漸層_210-3" cx="-185.55" cy="328.32" r="73.35" xlink:href="#未命名漸層_210"/><radialGradient id="未命名漸層_210-4" cx="-33.16" cy="321.85" r="48.27" xlink:href="#未命名漸層_210"/><radialGradient id="未命名漸層_210-5" cx="41.83" cy="474.25" r="120.54" xlink:href="#未命名漸層_210"/><radialGradient id="未命名漸層_210-6" cx="-17.38" cy="-1402.46" r="53.02" gradientTransform="matrix(-0.17, 0.17, -1.38, -0.17, -1895.4, -102.24)" xlink:href="#未命名漸層_210"/><radialGradient id="未命名漸層_210-7" cx="-137.1" cy="544.86" r="120.39" gradientTransform="matrix(-0.26, 0.26, -0.25, -0.26, 194.28, 357.59)" xlink:href="#未命名漸層_210"/><radialGradient id="未命名漸層_210-8" cx="-33.66" cy="480.06" r="51.23" xlink:href="#未命名漸層_210"/><radialGradient id="未命名漸層_210-9" cx="18.05" cy="253.7" r="178" xlink:href="#未命名漸層_210"/><radialGradient id="未命名漸層_210-10" cx="300.61" cy="436.5" r="138.59" xlink:href="#未命名漸層_210"/><radialGradient id="未命名漸層_210-11" cx="-28.68" cy="292.34" r="54.88" xlink:href="#未命名漸層_210"/><radialGradient id="未命名漸層_210-12" cx="118.3" cy="322.28" r="53.91" xlink:href="#未命名漸層_210"/><radialGradient id="未命名漸層_210-13" cx="118.3" cy="479.05" r="50.51" xlink:href="#未命名漸層_210"/><radialGradient id="未命名漸層_210-14" cx="-99.75" cy="322.88" r="6.06" xlink:href="#未命名漸層_210"/><radialGradient id="未命名漸層_210-15" cx="170.07" cy="399.01" r="120.7" gradientTransform="matrix(-0.26, 0.26, -0.25, -0.26, 349.59, 182.47)" xlink:href="#未命名漸層_210"/><radialGradient id="未命名漸層_210-16" cx="262.22" cy="322.69" r="73.37" xlink:href="#未命名漸層_210"/><radialGradient id="未命名漸層_210-17" cx="747.18" cy="-1323.6" r="103.88" gradientTransform="matrix(-0.18, 0.18, -1.63, -0.18, -1766.83, -184.17)" xlink:href="#未命名漸層_210"/><radialGradient id="未命名漸層_210-18" cx="274.8" cy="322.28" r="49.46" xlink:href="#未命名漸層_210"/><radialGradient id="未命名漸層_210-19" cx="615.63" cy="294.91" r="48.57" gradientTransform="matrix(-0.29, 0.29, -0.51, -0.29, 593.51, 0.87)" xlink:href="#未命名漸層_210"/><radialGradient id="未命名漸層_210-20" cx="-245.42" cy="246.04" r="6.71" xlink:href="#未命名漸層_210"/><radialGradient id="未命名漸層_210-21" cx="-255.73" cy="310.66" r="42.44" xlink:href="#未命名漸層_210"/><radialGradient id="未命名漸層_210-22" cx="203.52" cy="322.28" r="6.06" xlink:href="#未命名漸層_210"/><radialGradient id="未命名漸層_210-23" cx="-185" cy="322.44" r="7.27" xlink:href="#未命名漸層_210"/><radialGradient id="未命名漸層_210-24" cx="-148.16" cy="322.28" r="21.04" xlink:href="#未命名漸層_210"/><radialGradient id="未命名漸層_210-25" cx="-974.12" cy="2930.48" r="22.03" gradientTransform="translate(1162.11 445.22) rotate(90) scale(0.38 0.37)" xlink:href="#未命名漸層_210"/><radialGradient id="未命名漸層_91" cx="-260.72" cy="383.9" r="6.21" gradientTransform="translate(134.12 -27.16) scale(0.37 0.38)" gradientUnits="userSpaceOnUse"><stop offset="0" stop-color="#99d2c4"/><stop offset="0.18" stop-color="#91d0c5"/><stop offset="0.46" stop-color="#7ccbc9"/><stop offset="0.79" stop-color="#5ac3ce"/><stop offset="1" stop-color="#41bdd2"/></radialGradient><radialGradient id="未命名漸層_210-26" cx="-260.72" cy="383.9" r="6.71" xlink:href="#未命名漸層_210"/><radialGradient id="未命名漸層_91-2" cx="344.75" cy="246.04" r="6.21" xlink:href="#未命名漸層_91"/><radialGradient id="未命名漸層_210-27" cx="344.75" cy="246.04" r="6.71" xlink:href="#未命名漸層_210"/><radialGradient id="未命名漸層_210-28" cx="344.54" cy="399.01" r="6.75" xlink:href="#未命名漸層_210"/><radialGradient id="未命名漸層_91-3" cx="268.26" cy="323.03" r="6.21" xlink:href="#未命名漸層_91"/><radialGradient id="未命名漸層_210-29" cx="268.26" cy="323.03" r="6.71" xlink:href="#未命名漸層_210"/><radialGradient id="未命名漸層_91-4" cx="193.81" cy="474.27" r="6.21" xlink:href="#未命名漸層_91"/><radialGradient id="未命名漸層_210-30" cx="193.81" cy="474.27" r="6.71" xlink:href="#未命名漸層_210"/><radialGradient id="未命名漸層_91-5" cx="-110.36" cy="474.27" r="6.21" xlink:href="#未命名漸層_91"/><radialGradient id="未命名漸層_210-31" cx="-110.36" cy="474.27" r="6.71" xlink:href="#未命名漸層_210"/><radialGradient id="未命名漸層_210-32" cx="-261.11" cy="475.75" r="6.71" xlink:href="#未命名漸層_210"/><radialGradient id="未命名漸層_210-33" cx="99.54" cy="-1330.37" r="111.85" gradientTransform="matrix(-0.17, 0.17, -2.2, -0.17, -2869.75, -57.72)" xlink:href="#未命名漸層_210"/><radialGradient id="未命名漸層_210-34" cx="344.54" cy="475.75" r="6.71" xlink:href="#未命名漸層_210"/><radialGradient id="未命名漸層_210-35" cx="807.33" cy="-2191.17" r="48.93" gradientTransform="matrix(-0.15, 0.15, -2.3, -0.15, -4658.4, -318.4)" xlink:href="#未命名漸層_210"/><radialGradient id="未命名漸層_210-36" cx="1743.92" cy="163.62" r="8.79" gradientTransform="matrix(0.26, -0.27, 0.26, 0.26, -355.61, 541.78)" xlink:href="#未命名漸層_210"/><radialGradient id="未命名漸層_91-6" cx="1883.99" cy="5893.29" r="21.04" gradientTransform="translate(954.28 2505.34) rotate(180) scale(0.37 0.37)" xlink:href="#未命名漸層_91"/><radialGradient id="未命名漸層_91-7" cx="1915.93" cy="6011.61" r="78.33" gradientTransform="translate(954.28 2505.34) rotate(180) scale(0.37 0.37)" xlink:href="#未命名漸層_91"/><radialGradient id="未命名漸層_91-8" cx="1920.5" cy="5899.24" r="73.35" gradientTransform="translate(954.28 2505.34) rotate(180) scale(0.37 0.37)" xlink:href="#未命名漸層_91"/><radialGradient id="未命名漸層_91-9" cx="2072.89" cy="5892.77" r="48.27" gradientTransform="translate(954.28 2505.34) rotate(180) scale(0.37 0.37)" xlink:href="#未命名漸層_91"/><radialGradient id="未命名漸層_91-10" cx="2147.88" cy="6045.17" r="120.54" gradientTransform="translate(954.28 2505.34) rotate(180) scale(0.37 0.37)" xlink:href="#未命名漸層_91"/><radialGradient id="未命名漸層_91-11" cx="1512.67" cy="10067.63" r="53.02" gradientTransform="matrix(-0.17, 0.17, -1.38, -0.17, 14368.32, 1719.74)" xlink:href="#未命名漸層_91"/><radialGradient id="未命名漸層_91-12" cx="2023.47" cy="6096.56" r="111.24" gradientTransform="matrix(-0.26, 0.26, -0.25, -0.26, 2252.4, 1284.56)" xlink:href="#未命名漸層_91"/><radialGradient id="未命名漸層_91-13" cx="2072.39" cy="6050.98" r="51.23" gradientTransform="translate(954.28 2505.34) rotate(180) scale(0.37 0.37)" xlink:href="#未命名漸層_91"/><radialGradient id="未命名漸層_91-14" cx="2124.1" cy="5824.62" r="178" gradientTransform="translate(954.28 2505.34) rotate(180) scale(0.37 0.37)" xlink:href="#未命名漸層_91"/><radialGradient id="未命名漸層_91-15" cx="2406.66" cy="5968.93" r="112.24" gradientTransform="translate(954.28 2505.34) rotate(180) scale(0.37 0.37)" xlink:href="#未命名漸層_91"/><radialGradient id="未命名漸層_91-16" cx="2077.37" cy="5863.26" r="54.88" gradientTransform="translate(954.28 2505.34) rotate(180) scale(0.37 0.37)" xlink:href="#未命名漸層_91"/><radialGradient id="未命名漸層_91-17" cx="2224.35" cy="5893.2" r="53.91" gradientTransform="translate(954.28 2505.34) rotate(180) scale(0.37 0.37)" xlink:href="#未命名漸層_91"/><radialGradient id="未命名漸層_91-18" cx="2224.35" cy="6049.98" r="50.51" gradientTransform="translate(954.28 2505.34) rotate(180) scale(0.37 0.37)" xlink:href="#未命名漸層_91"/><radialGradient id="未命名漸層_91-19" cx="2006.3" cy="5893.8" r="6.06" gradientTransform="translate(954.28 2505.34) rotate(180) scale(0.37 0.37)" xlink:href="#未命名漸層_91"/><radialGradient id="未命名漸層_91-20" cx="2321.51" cy="5969.94" r="120.7" gradientTransform="matrix(-0.26, 0.26, -0.25, -0.26, 2198.89, 1220.22)" xlink:href="#未命名漸層_91"/><radialGradient id="未命名漸層_91-21" cx="2368.27" cy="5893.61" r="73.37" gradientTransform="translate(954.28 2505.34) rotate(180) scale(0.37 0.37)" xlink:href="#未命名漸層_91"/><radialGradient id="未命名漸層_91-22" cx="2143.06" cy="9848.99" r="48.93" gradientTransform="matrix(-0.18, 0.18, -1.63, -0.18, 16499.19, 1578.7)" xlink:href="#未命名漸層_91"/><radialGradient id="未命名漸層_91-23" cx="2380.85" cy="5893.2" r="49.46" gradientTransform="translate(954.28 2505.34) rotate(180) scale(0.37 0.37)" xlink:href="#未命名漸層_91"/><radialGradient id="未命名漸層_91-24" cx="2243.71" cy="5984.89" r="48.57" gradientTransform="matrix(-0.29, 0.29, -0.51, -0.29, 3741.56, 1385.72)" xlink:href="#未命名漸層_91"/><radialGradient id="未命名漸層_91-25" cx="1860.63" cy="5816.97" r="6.71" gradientTransform="translate(954.28 2505.34) rotate(180) scale(0.37 0.37)" xlink:href="#未命名漸層_91"/><radialGradient id="未命名漸層_91-26" cx="1850.32" cy="5881.58" r="42.44" gradientTransform="translate(954.28 2505.34) rotate(180) scale(0.37 0.37)" xlink:href="#未命名漸層_91"/><radialGradient id="未命名漸層_91-27" cx="2309.57" cy="5893.2" r="6.06" gradientTransform="translate(954.28 2505.34) rotate(180) scale(0.37 0.37)" xlink:href="#未命名漸層_91"/><radialGradient id="未命名漸層_91-28" cx="1921.04" cy="5893.36" r="7.27" gradientTransform="translate(954.28 2505.34) rotate(180) scale(0.37 0.37)" xlink:href="#未命名漸層_91"/><radialGradient id="未命名漸層_91-29" cx="1957.89" cy="5893.2" r="21.04" gradientTransform="translate(954.28 2505.34) rotate(180) scale(0.37 0.37)" xlink:href="#未命名漸層_91"/><radialGradient id="未命名漸層_91-30" cx="4596.81" cy="824.43" r="22.03" gradientTransform="translate(-73.71 2033.22) rotate(-90) scale(0.38 0.37)" xlink:href="#未命名漸層_91"/><radialGradient id="未命名漸層_91-31" cx="1845.33" cy="5954.83" r="6.21" gradientTransform="translate(954.28 2505.6) rotate(180) scale(0.37 0.38)" xlink:href="#未命名漸層_91"/><radialGradient id="未命名漸層_91-32" cx="1845.33" cy="5954.83" r="6.71" gradientTransform="translate(954.28 2505.34) rotate(180) scale(0.37 0.37)" xlink:href="#未命名漸層_91"/><radialGradient id="未命名漸層_91-33" cx="2450.79" cy="5816.97" r="6.21" gradientTransform="translate(954.28 2505.6) rotate(180) scale(0.37 0.38)" xlink:href="#未命名漸層_91"/><radialGradient id="未命名漸層_91-34" cx="2450.79" cy="5816.97" r="6.71" gradientTransform="translate(954.28 2505.34) rotate(180) scale(0.37 0.37)" xlink:href="#未命名漸層_91"/><radialGradient id="未命名漸層_91-35" cx="2450.59" cy="5969.93" r="6.75" gradientTransform="translate(-881.44 -1974.47) scale(0.37 0.37)" xlink:href="#未命名漸層_91"/><radialGradient id="未命名漸層_91-36" cx="2374.31" cy="5893.96" r="6.21" gradientTransform="translate(954.28 2505.6) rotate(180) scale(0.37 0.38)" xlink:href="#未命名漸層_91"/><radialGradient id="未命名漸層_91-37" cx="2374.31" cy="5893.96" r="6.71" gradientTransform="translate(954.28 2505.34) rotate(180) scale(0.37 0.37)" xlink:href="#未命名漸層_91"/><radialGradient id="未命名漸層_91-38" cx="2299.86" cy="6045.19" r="6.21" gradientTransform="translate(954.28 2505.6) rotate(180) scale(0.37 0.38)" xlink:href="#未命名漸層_91"/><radialGradient id="未命名漸層_91-39" cx="2299.86" cy="6045.19" r="6.71" gradientTransform="translate(954.28 2505.34) rotate(180) scale(0.37 0.37)" xlink:href="#未命名漸層_91"/><radialGradient id="未命名漸層_91-40" cx="1995.69" cy="6045.19" r="6.21" gradientTransform="translate(954.28 2505.6) rotate(180) scale(0.37 0.38)" xlink:href="#未命名漸層_91"/><radialGradient id="未命名漸層_91-41" cx="1995.69" cy="6045.19" r="6.71" gradientTransform="translate(954.28 2505.34) rotate(180) scale(0.37 0.37)" xlink:href="#未命名漸層_91"/><radialGradient id="未命名漸層_91-42" cx="1844.94" cy="6046.67" r="6.71" gradientTransform="translate(954.28 2505.34) rotate(180) scale(0.37 0.37)" xlink:href="#未命名漸層_91"/><radialGradient id="未命名漸層_91-43" cx="1353.88" cy="10630.16" r="53.02" gradientTransform="matrix(-0.17, 0.17, -2.2, -0.17, 23843.42, 1770.27)" xlink:href="#未命名漸層_91"/><radialGradient id="未命名漸層_91-44" cx="2450.59" cy="6046.67" r="6.71" gradientTransform="translate(954.28 2505.34) rotate(180) scale(0.37 0.37)" xlink:href="#未命名漸層_91"/><radialGradient id="未命名漸層_91-45" cx="2096.92" cy="11088.89" r="48.93" gradientTransform="matrix(-0.15, 0.15, -2.3, -0.15, 25883.97, 1617.67)" xlink:href="#未命名漸層_91"/><radialGradient id="未命名漸層_91-46" cx="42.87" cy="780.51" r="11.72" xlink:href="#未命名漸層_91"/><radialGradient id="未命名漸層_91-47" cx="-706.12" cy="5592.06" r="8.79" gradientTransform="matrix(-0.26, 0.27, -0.26, -0.26, 1444.01, 1936.66)" xlink:href="#未命名漸層_91"/><radialGradient id="未命名漸層_210-37" cx="124.58" cy="698.13" r="186.99" gradientTransform="translate(98.57 -107.67) scale(0.41 0.41)" xlink:href="#未命名漸層_210"/><radialGradient id="未命名漸層_91-48" cx="126.11" cy="832.88" r="186.99" gradientTransform="translate(97.94 -133.89) scale(0.41 0.41)" xlink:href="#未命名漸層_91"/></defs><title>工作區域 1</title><rect class="cls-2" x="-0.02" width="300.02" height="388"/><rect class="cls-3" x="-0.6" y="36.53" width="300.02" height="314.93"/><g class="cls-4"><line class="cls-5" x1="39.81" y1="93.8" x2="62.1" y2="93.8"/><polyline class="cls-6" points="64.77 96.69 64.77 118.22 61.14 122.38 64.77 125.8 64.77 179.72 65.17 208.6"/><polyline class="cls-7" points="92.87 69.51 92.87 119.73 90.04 122.38 41.42 122.38 36.33 117.47"/><line class="cls-8" x1="121.7" y1="68" x2="121.7" y2="119.22"/><polyline class="cls-9" points="92.87 179.4 92.87 124.45 95.51 122.38 149.79 122.38 203.88 122.38 206.72 125.22 206.72 179.4"/><polyline class="cls-10" points="36.33 121.7 36.33 135.37 36.33 149.03"/><polyline class="cls-11" points="38.65 151.36 147.04 151.36 149.8 154.19 149.8 180.16 149.79 207.84"/><line class="cls-12" x1="121.33" y1="125.8" x2="121.7" y2="180.16"/><polyline class="cls-13" points="46.65 65.16 144.51 65.16 149.79 70.83 155.44 65.16 234.6 65.16 230.74 68.39"/><polyline class="cls-14" points="263.25 65.16 239.12 65.16 234.69 69.6 234.6 117.85 230.45 122 234.42 125.97 234.42 179.4 234.82 208.28"/><polyline class="cls-15" points="96.77 94.05 146.77 94.05 149.82 91 149.79 70.83"/><line class="cls-16" x1="178.44" y1="65.16" x2="178.44" y2="122.38"/><line class="cls-17" x1="178.44" y1="125.8" x2="178.44" y2="179.4"/><line class="cls-18" x1="96.77" y1="90.79" x2="96.77" y2="97.2"/><polyline class="cls-19" points="202.18 93.77 152.39 93.77 149.41 96.82 149.78 148.44 152.64 151.36 260.85 151.27"/><polyline class="cls-20" points="206.33 65.16 206.33 119.22 209.6 122.5 258.54 122.5"/><polyline class="cls-21" points="263.25 153.69 263.25 179.4 263.12 208.28"/><line class="cls-22" x1="210.85" y1="93.77" x2="263.25" y2="93.77"/><line class="cls-23" x1="263.25" y1="69.75" x2="263.25" y2="120.22"/><ellipse class="cls-24" cx="42.2" cy="65.16" rx="2.33" ry="2.33"/><polyline class="cls-25" points="36.47 111.84 36.47 70.68 40.27 67.12"/><line class="cls-26" x1="210.35" y1="90.56" x2="210.35" y2="96.98"/><ellipse class="cls-27" cx="64.83" cy="93.83" rx="2.54" ry="2.54"/><line class="cls-28" x1="67.49" y1="93.77" x2="89.77" y2="93.77"/><line class="cls-29" x1="64.77" y1="68" x2="64.77" y2="91.38"/><ellipse class="cls-30" cx="36.47" cy="116.89" rx="2.33" ry="2.33"/><ellipse class="cls-31" cx="263.25" cy="65.16" rx="2.33" ry="2.33"/><rect class="cls-32" x="260.83" y="120.22" width="4.68" height="4.69"/><ellipse class="cls-33" cx="234.6" cy="94.05" rx="2.33" ry="2.33"/><ellipse class="cls-34" cx="206.72" cy="150.8" rx="2.33" ry="2.33"/><ellipse class="cls-35" cx="92.79" cy="150.8" rx="2.33" ry="2.33"/><ellipse class="cls-36" cx="36.33" cy="151.36" rx="2.33" ry="2.33"/><polyline class="cls-37" points="36.47 153.69 36.47 166.7 36.47 179.72 36.34 208.6"/><ellipse class="cls-38" cx="263.17" cy="151.36" rx="2.33" ry="2.33"/><line class="cls-39" x1="263.17" y1="127.25" x2="263.17" y2="149.03"/><polygon class="cls-40" points="153.8 122.28 149.41 126.68 145.02 122.28 149.41 117.88 153.8 122.28"/><line class="cls-41" x1="259.78" y1="294.2" x2="237.49" y2="294.2"/><polyline class="cls-42" points="234.82 291.31 234.82 269.78 238.45 265.62 234.82 262.2 234.82 208.28"/><polyline class="cls-43" points="206.72 318.49 206.72 268.27 209.55 265.62 258.18 265.62 263.26 270.53"/><line class="cls-44" x1="177.89" y1="320" x2="177.89" y2="268.78"/><polyline class="cls-45" points="206.72 208.6 206.72 263.55 204.08 265.62 149.8 265.62 95.71 265.62 92.88 262.78 92.88 208.6"/><polyline class="cls-46" points="263.26 266.3 263.26 252.63 263.26 238.97"/><polyline class="cls-47" points="260.94 236.64 152.54 236.64 149.79 233.81 149.79 207.84"/><line class="cls-48" x1="178.26" y1="262.2" x2="177.89" y2="207.84"/><polyline class="cls-49" points="252.94 322.84 155.08 322.84 149.8 317.17 144.15 322.84 64.99 322.84 68.85 319.61"/><polyline class="cls-50" points="36.34 322.84 60.47 322.84 64.9 318.4 64.99 270.15 69.14 266 65.17 262.02 65.17 208.6"/><polyline class="cls-51" points="202.82 293.95 152.82 293.95 149.78 297 149.8 317.17"/><line class="cls-52" x1="121.16" y1="322.84" x2="121.16" y2="265.62"/><line class="cls-53" x1="121.16" y1="262.2" x2="121.16" y2="208.6"/><line class="cls-54" x1="202.83" y1="297.21" x2="202.83" y2="290.8"/><polyline class="cls-55" points="97.41 294.23 147.2 294.23 150.18 291.18 149.81 239.56 146.95 236.64 38.74 236.73"/><polyline class="cls-56" points="93.26 322.84 93.26 268.77 89.99 265.5 41.05 265.5"/><line class="cls-57" x1="36.34" y1="234.31" x2="36.34" y2="208.6"/><line class="cls-58" x1="88.74" y1="294.23" x2="36.34" y2="294.23"/><line class="cls-59" x1="36.34" y1="318.25" x2="36.34" y2="267.78"/><ellipse class="cls-60" cx="257.39" cy="322.84" rx="2.33" ry="2.33"/><polyline class="cls-61" points="263.12 276.16 263.12 317.32 259.32 320.88"/><line class="cls-62" x1="89.24" y1="297.44" x2="89.24" y2="291.02"/><ellipse class="cls-63" cx="234.76" cy="294.17" rx="2.54" ry="2.54"/><line class="cls-64" x1="232.1" y1="294.23" x2="209.82" y2="294.23"/><line class="cls-65" x1="234.82" y1="320" x2="234.82" y2="296.62"/><ellipse class="cls-66" cx="263.12" cy="271.11" rx="2.33" ry="2.33"/><ellipse class="cls-67" cx="36.34" cy="322.84" rx="2.33" ry="2.33"/><rect class="cls-68" x="34.08" y="263.09" width="4.68" height="4.69" transform="translate(72.84 530.87) rotate(180)"/><ellipse class="cls-69" cx="64.99" cy="293.95" rx="2.33" ry="2.33"/><ellipse class="cls-70" cx="92.87" cy="237.2" rx="2.33" ry="2.33"/><ellipse class="cls-71" cx="206.8" cy="237.2" rx="2.33" ry="2.33"/><ellipse class="cls-72" cx="263.26" cy="236.64" rx="2.33" ry="2.33"/><polyline class="cls-73" points="263.12 234.31 263.12 221.3 263.12 208.28"/><ellipse class="cls-74" cx="36.42" cy="236.64" rx="2.33" ry="2.33"/><line class="cls-75" x1="36.42" y1="260.75" x2="36.42" y2="238.97"/><polygon class="cls-76" points="145.79 265.72 150.18 261.32 154.57 265.72 150.18 270.12 145.79 265.72"/><line class="cls-77" x1="41.05" y1="179.4" x2="258.54" y2="179.4"/><line class="cls-78" x1="41.05" y1="208.6" x2="258.54" y2="208.6"/></g></svg>