<svg xmlns="http://www.w3.org/2000/svg" xmlns:xlink="http://www.w3.org/1999/xlink" viewBox="0 0 249.99 50.18"><defs><style>.cls-1{opacity:0.1;fill:url(#未命名漸層_13);}.cls-2{fill:none;stroke-miterlimit:10;stroke-width:2px;stroke:url(#未命名漸層_13-2);}.cls-3{fill:url(#未命名漸層_13-3);}.cls-4{fill:url(#未命名漸層_13-4);}.cls-5{fill:url(#未命名漸層_13-5);}.cls-6{fill:url(#未命名漸層_13-6);}</style><radialGradient id="未命名漸層_13" cx="333.56" cy="-13.22" r="75.02" gradientTransform="translate(-200.82 32.57) scale(0.98 0.57)" gradientUnits="userSpaceOnUse"><stop offset="0" stop-color="#fcdfba"/><stop offset="0.12" stop-color="#fbd7b3"/><stop offset="0.29" stop-color="#f9c29e"/><stop offset="0.51" stop-color="#f49f7c"/><stop offset="0.75" stop-color="#ef6f4e"/><stop offset="1" stop-color="#e83818"/></radialGradient><radialGradient id="未命名漸層_13-2" cx="121.35" cy="-351.09" r="91.7" gradientTransform="translate(29.02 235.43) scale(0.79 0.6)" xlink:href="#未命名漸層_13"/><radialGradient id="未命名漸層_13-3" cx="77.83" cy="70.88" r="14.64" gradientTransform="translate(29.02 -30.33) scale(0.79 0.79)" xlink:href="#未命名漸層_13"/><radialGradient id="未命名漸層_13-4" cx="109.42" cy="70.83" r="14.56" gradientTransform="translate(29.02 -30.33) scale(0.79 0.79)" xlink:href="#未命名漸層_13"/><radialGradient id="未命名漸層_13-5" cx="141.25" cy="71.01" r="14.42" gradientTransform="translate(29.02 -30.33) scale(0.79 0.79)" xlink:href="#未命名漸層_13"/><radialGradient id="未命名漸層_13-6" cx="172.04" cy="71.18" r="13.99" gradientTransform="translate(29.02 -30.33) scale(0.79 0.79)" xlink:href="#未命名漸層_13"/></defs><title>工作區域 29 複本 5</title><g id="圖層_2" data-name="圖層 2"><rect class="cls-1" x="26.31" y="6.76" width="197.36" height="36.66"/><rect class="cls-2" x="26.31" y="6.76" width="197.36" height="36.66"/><path class="cls-3" d="M84.69,26.2a32.63,32.63,0,0,1-1.85,6.63c.47.25,1,.72,2,1.28,1.8,1,4.13,1.22,7.13,1.22,3.33,0,7.41-.22,10.26-.5a6.46,6.46,0,0,0-.5,1.83c-1.9.12-6.78.3-9.83.3-3.3,0-5.53-.25-7.46-1.38-1-.6-2-1.45-2.52-1.45s-1.15,1.58-1.7,3.13l-1.26-1.6a9.27,9.27,0,0,1,2.41-2.93,27.53,27.53,0,0,0,1.52-5.15h-2.8c.58-1.48,1.3-3.61,1.85-5.58h-2.5V20.32H84c-.55,1.8-1.2,3.9-1.8,5.63h1.43l.27-.07ZM81.86,19c-.27-1.08-.82-2.81-1.22-4.11l1.47-.4c.43,1.3,1,2.93,1.25,4Zm7.08,4.45c0,3.15-.55,7-3,9.8a7.13,7.13,0,0,0-1.18-1.07c2.38-2.73,2.65-6.45,2.65-9.31V19.25H85V17.67h4c-.3-.85-.72-1.93-1.07-2.8l1.62-.33a23.54,23.54,0,0,1,1.3,3.13h2.7v1.38a17.49,17.49,0,0,0,1.88-4.86l1.63.4c-.23.8-.48,1.63-.76,2.41h5.61v1.6H95.54A15.72,15.72,0,0,1,94,21.3a9.38,9.38,0,0,0-1.33-1,9.2,9.2,0,0,0,.73-1H88.94V21.9h4s0,.55,0,.77c-.18,7.11-.35,9.51-.88,10.26a1.74,1.74,0,0,1-1.3.7,16.77,16.77,0,0,1-2,0,4.26,4.26,0,0,0-.42-1.55,16.5,16.5,0,0,0,1.75.08.56.56,0,0,0,.6-.3c.35-.48.52-2.55.67-8.43Zm9.71,8.35c0,.83-.15,1.3-.8,1.55a7.62,7.62,0,0,1-2.91.3,5.41,5.41,0,0,0-.57-1.55c1,0,2,0,2.28,0S97,32,97,31.78V27.6H93.59V26.05H97V23.92a13.26,13.26,0,0,0,2-1.7H94.44V20.77h5.86l.3-.1,1.05.78a18.42,18.42,0,0,1-3,2.92v1.68H102V27.6H98.65Z"/><path class="cls-4" d="M107.05,19.77V25.4c0,3.33-.25,8.15-1.8,11.38a5.07,5.07,0,0,0-1.3-1c1.4-3.06,1.52-7.31,1.52-10.41V18.45h4.81V14.27H112v1.55h5.28v1.3H112v1.33h4.6l.28-.05,1.1.25a27.85,27.85,0,0,1-1,3.55l-1.36-.33a18.23,18.23,0,0,0,.53-2.1h-4V21.3l2.58-.25.15,1.07-2.73.28V23c0,.6.08.78.55.78h2.4a7.21,7.21,0,0,0,1.48-.13c0,.4.07.78.12,1.15a6.35,6.35,0,0,1-1.52.13h-2.85c-1.45,0-1.73-.6-1.73-1.95v-.45l-2.93.3-.15-1.13,3.08-.3V19.77Zm19.76,4.58A28.23,28.23,0,0,1,123.06,32c.45,1.82,1,2.9,1.72,2.95.45,0,.78-1.35,1-3.75a5.19,5.19,0,0,0,1.32,1c-.47,3.88-1.37,4.93-2.28,4.91-1.32,0-2.3-1.3-3-3.48a15,15,0,0,1-3.08,2.78,6.66,6.66,0,0,0-1.3-1.23v.6c-3.6.35-7.38.73-10.06,1l-.2-1.45,3.08-.25a23.32,23.32,0,0,0-.8-2.58l1.33-.25c.32.85.72,1.93.92,2.7l1.65-.15c.38-.82.85-1.9,1.1-2.65l1.55.3c-.35.75-.75,1.53-1.12,2.2l2.55-.22v.72a14.86,14.86,0,0,0,3.83-3.45,60.55,60.55,0,0,1-1.1-8.61l-2.1.28-.25-1.63,2.22-.3c-.12-2.2-.2-4.55-.27-7h1.72c0,2.38.13,4.68.25,6.81l5.26-.68.22,1.65-5.38.68c.2,2.68.48,5,.78,7a23.09,23.09,0,0,0,2.85-6.26Zm-9.15,2.75h-9.81V25.8h9.81ZM108.5,32v-3.9h8.3V32ZM110,31h5.33V29.2H110Zm15.48-11.3c-.6-1-1.8-2.88-2.77-4.21l1.37-.67c1,1.3,2.23,3,2.88,4.08Z"/><path class="cls-5" d="M137.89,33.68c-.6-1-2.13-3-3.23-4.48a13.53,13.53,0,0,1-4.15,7.58,6.66,6.66,0,0,0-1.3-1.3c3-2.48,3.93-6.25,4.18-9.6h-4V24.17h4.1c0-.55,0-1.1,0-1.6V20.1h-3.6V18.42h3.6V14.54h1.75v3.88h3.48V20.1h-3.48v2.47c0,.5,0,1.05,0,1.6h4v1.71h-4.05c0,.45-.1.92-.15,1.4,1,1,3.6,4.22,4.18,5ZM150.07,35c.45,0,.58-.25.63-2a4.79,4.79,0,0,0,1.55.68c-.18,2.35-.68,3-2,3h-2.08c-1.7,0-2.1-.5-2.1-2.25V29.08h-1.8c-.48,3.77-1.78,6.5-6,8a4.64,4.64,0,0,0-1-1.4c3.78-1.25,4.85-3.56,5.25-6.63h-2.37V15.24h10.65V29.08h-3v5.35c0,.53.07.6.6.6Zm-8.23-15.66H149V17h-7.13Zm0,4H149V20.92h-7.13Zm0,4H149V24.92h-7.13Z"/><path class="cls-6" d="M159.25,32.15a16.17,16.17,0,0,1-3.55,5A10.39,10.39,0,0,0,154.15,36a12.76,12.76,0,0,0,3.3-4.36Zm6.08-16.91V30.93h-9.66V15.24ZM157.45,20h6.08v-3h-6.08Zm0,4.63h6.08V21.5h-6.08Zm0,4.68h6.08V26.13h-6.08Zm5.9,2.4a21.46,21.46,0,0,1,2.86,4.23l-1.71.85a21.36,21.36,0,0,0-2.77-4.41Zm6.53-14.41V31h-1.82V17.27Zm6.13-2.5V34.66c0,1.25-.35,1.82-1.12,2.15a16.09,16.09,0,0,1-4.51.32,8.6,8.6,0,0,0-.67-1.87c1.75.07,3.32.05,3.8,0s.65-.15.65-.62V14.77Z"/></g></svg>