<svg id="圖層_1" data-name="圖層 1" xmlns="http://www.w3.org/2000/svg" xmlns:xlink="http://www.w3.org/1999/xlink" viewBox="0 0 33 33"><defs><style>.cls-1{fill:url(#未命名漸層_15);}.cls-2{fill:url(#未命名漸層_20);}.cls-3{font-size:15.96px;fill:none;stroke:#048781;stroke-miterlimit:10;stroke-width:0.5px;font-family:NotoSansCJKtc-Light-B5pc-H, Noto Sans CJK TC;}.cls-4{fill:url(#未命名漸層_15-2);}</style><linearGradient id="未命名漸層_15" x1="4.93" y1="16.97" x2="29.43" y2="16.97" gradientUnits="userSpaceOnUse"><stop offset="0" stop-color="#088681"/><stop offset="0.19" stop-color="#0d8b89"/><stop offset="0.49" stop-color="#1c9a9e"/><stop offset="0.84" stop-color="#35b1c0"/><stop offset="1" stop-color="#41bdd2"/></linearGradient><linearGradient id="未命名漸層_20" x1="3.57" y1="16.03" x2="28.07" y2="16.03" gradientUnits="userSpaceOnUse"><stop offset="0" stop-color="#fff"/><stop offset="0.26" stop-color="#f7fcfd"/><stop offset="0.65" stop-color="#e2f2f6"/><stop offset="1" stop-color="#cae8ef"/></linearGradient><linearGradient id="未命名漸層_15-2" x1="8.56" y1="10.37" x2="27.22" y2="10.37" xlink:href="#未命名漸層_15"/></defs><title>工作區域 53 複本 30</title><circle class="cls-1" cx="17.18" cy="16.97" r="12.25"/><circle class="cls-2" cx="15.82" cy="16.03" r="12.25"/><text class="cls-3" transform="matrix(1, -0.03, 0.03, 1, 8.49, 22.32)">包</text><path class="cls-4" d="M8.56,7.16a11.26,11.26,0,0,1,5.95-2.79A10.58,10.58,0,0,1,21,5.53a11.78,11.78,0,0,1,4.69,4.57,12.17,12.17,0,0,1,1.49,6.36l-.34,0a11.64,11.64,0,0,0-1.48-6.16A11.35,11.35,0,0,0,20.76,5.9a10.14,10.14,0,0,0-6.19-1.08A10.84,10.84,0,0,0,8.9,7.52Z"/><text class="cls-3" transform="matrix(1, -0.03, 0.03, 1, 3.15, -15.34)">馬</text></svg>